<?xml version="1.0" standalone="no"?>
<!DOCTYPE svg PUBLIC "-//W3C//DTD SVG 20010904//EN"
 "http://www.w3.org/TR/2001/REC-SVG-20010904/DTD/svg10.dtd">
<svg version="1.0" xmlns="http://www.w3.org/2000/svg"
 width="860.000000pt" height="512.000000pt" viewBox="0 0 860.000000 512.000000"
 preserveAspectRatio="xMidYMid meet">

<g transform="translate(0.000000,512.000000) scale(0.100000,-0.100000)"
fill="#000000" stroke="none">
<path d="M6380 4699 c0 -6 6 -23 14 -37 14 -27 32 -70 35 -84 1 -4 12 -19 26
-34 13 -14 32 -46 41 -70 9 -24 20 -44 24 -44 5 0 13 -13 18 -30 9 -25 8 -30
-9 -35 -29 -9 -119 5 -119 18 0 7 -5 5 -10 -3 -8 -13 -10 -12 -10 4 0 15 -3
16 -15 6 -9 -7 -15 -8 -15 -2 0 5 7 12 15 16 20 7 19 26 -1 26 -9 0 -14 6 -12
12 5 15 -5 27 -44 52 -34 22 -34 15 -3 -49 31 -63 31 -75 0 -75 -14 0 -25 -4
-25 -9 0 -5 -9 -11 -20 -14 -25 -6 -26 1 -2 19 16 13 16 14 0 8 -21 -7 -23 8
-6 35 16 26 3 55 -22 48 -11 -3 -20 -1 -20 4 0 5 -3 8 -7 8 -5 -1 -32 -1 -61
0 -39 1 -51 4 -47 14 4 6 0 4 -8 -5 -8 -10 -19 -18 -24 -18 -13 0 -57 51 -63
74 -3 10 -21 27 -40 37 -34 19 -35 19 -42 -2 -8 -22 13 -69 31 -69 12 0 21
-39 10 -45 -13 -9 -146 -35 -204 -41 -27 -3 -56 -7 -64 -10 -7 -2 -35 -1 -62
2 -41 6 -49 10 -58 35 -5 16 -14 29 -20 29 -5 0 -13 9 -16 20 -3 11 -11 20
-17 20 -5 0 -21 9 -36 20 -37 29 -47 11 -21 -38 13 -23 25 -42 28 -42 3 0 4
-23 2 -51 -2 -42 -6 -49 -20 -43 -9 4 -25 7 -36 7 -11 1 -31 14 -45 29 -13 15
-30 28 -36 28 -17 0 -47 -37 -48 -61 -1 -21 -5 -22 -96 -20 -52 1 -105 4 -116
7 -12 3 -25 1 -28 -4 -3 -6 -15 -8 -25 -5 -13 3 -21 -2 -26 -16 -7 -23 6 -55
21 -49 5 1 10 -7 12 -19 2 -12 10 -27 18 -33 8 -7 14 -23 14 -36 0 -13 5 -24
10 -24 15 0 12 47 -2 53 -10 3 -8 9 4 23 16 17 19 17 36 1 10 -9 21 -17 25
-17 3 0 26 -21 51 -47 l46 -48 -11 35 c-6 19 -13 42 -16 52 -5 18 22 37 53 37
10 0 34 2 53 4 29 4 39 -2 72 -36 22 -22 39 -49 39 -62 0 -13 13 -37 29 -54
17 -18 33 -42 37 -54 3 -12 12 -29 18 -37 16 -20 40 -119 31 -128 -4 -4 -12 0
-18 8 -12 16 -47 15 -47 -1 0 -5 -4 -9 -9 -9 -8 0 -15 27 -26 105 -14 95 -19
115 -27 115 -5 0 -9 -10 -8 -22 3 -38 -11 -68 -31 -68 -11 0 -19 5 -19 11 0 5
5 7 10 4 6 -3 10 -1 10 4 0 10 -21 16 -42 12 -5 0 -8 7 -8 17 0 9 -9 28 -20
42 -15 20 -21 23 -32 12 -10 -10 -10 -17 2 -35 7 -12 20 -34 27 -49 8 -15 22
-30 31 -33 9 -3 32 -26 51 -50 48 -64 102 -114 116 -108 7 2 16 -1 20 -7 5 -8
11 -8 21 1 17 14 44 5 44 -15 0 -7 -7 -16 -15 -20 -8 -3 -15 -2 -15 2 0 4 -11
12 -25 19 -46 21 -37 8 121 -186 15 -18 40 -53 56 -77 15 -24 42 -53 60 -64
18 -11 34 -24 34 -30 1 -5 2 -14 3 -20 0 -5 8 -10 16 -10 8 0 15 -7 15 -15 0
-8 9 -15 20 -15 11 0 20 5 20 10 0 6 7 10 15 10 8 0 15 -9 15 -20 0 -11 5 -20
10 -20 6 0 10 5 10 10 0 15 30 12 31 -2 2 -28 7 -54 14 -70 6 -16 4 -16 -37 0
-23 9 -51 26 -60 37 -19 23 -24 6 -8 -26 10 -17 8 -18 -16 -9 -14 6 -30 8 -35
4 -5 -3 -9 0 -9 6 0 11 -67 83 -82 88 -27 9 -68 39 -68 50 0 6 -7 12 -16 12
-8 0 -13 4 -10 9 3 5 -6 12 -19 15 -17 4 -23 11 -19 19 5 9 4 9 -6 0 -10 -9
-9 -16 4 -35 9 -12 19 -21 22 -19 3 2 29 -17 57 -42 29 -25 63 -55 76 -66 20
-18 21 -21 7 -27 -29 -11 -17 -21 34 -28 83 -11 48 -27 -43 -20 -45 4 -90 6
-99 6 -21 -1 -24 14 -5 21 14 6 7 7 -68 11 -59 3 -75 -1 -75 -20 0 -21 -20
-17 -20 4 -1 16 -2 16 -13 0 -9 -11 -18 -14 -27 -8 -8 5 -18 6 -23 3 -5 -3
-26 -5 -48 -5 -23 1 -39 -4 -39 -11 0 -6 -6 -2 -14 8 -10 14 -25 19 -55 19
-49 -2 -50 -3 -53 -37 -2 -19 -5 -23 -14 -16 -9 7 -20 6 -36 -3 -25 -14 -388
-18 -485 -4 -44 5 -53 4 -53 -9 0 -19 -1 -19 -36 0 -36 19 -134 20 -134 3 -1
-8 -6 -5 -14 5 -12 16 -18 17 -36 7 -15 -8 -20 -8 -16 -1 5 7 -6 11 -33 11
-23 0 -41 -5 -41 -10 0 -6 -11 -5 -27 4 -16 7 -53 14 -83 15 -58 1 -203 8
-335 17 -108 7 -188 10 -640 29 -66 3 -160 8 -210 10 -49 3 -191 10 -315 15
-124 6 -252 12 -285 15 -33 2 -127 7 -210 10 -152 6 -254 10 -490 20 -205 9
-457 14 -762 15 -219 0 -283 3 -283 13 0 6 -11 19 -24 29 -21 15 -25 15 -57 0
-19 -9 -36 -19 -39 -23 -12 -16 -127 -69 -150 -69 -42 0 -60 -21 -66 -75 -3
-28 -11 -57 -19 -65 -23 -28 -6 -40 55 -40 50 0 58 -3 63 -21 5 -19 7 -19 29
-6 13 8 37 18 55 22 31 6 31 5 29 -27 -2 -18 -8 -46 -14 -61 -7 -16 -12 -35
-12 -44 0 -8 -6 -29 -14 -46 -27 -63 -96 -285 -126 -407 -50 -198 -51 -201
-60 -275 -8 -64 -7 -73 13 -102 17 -25 25 -30 39 -22 10 5 18 20 18 33 0 13 8
34 18 46 l18 22 -2 -29 c-1 -15 -3 -28 -4 -28 -2 0 -9 -33 -17 -90 -8 -48 -10
-51 -49 -63 -33 -10 -41 -17 -37 -32 3 -10 18 -24 34 -30 15 -7 31 -21 34 -31
4 -10 11 -19 17 -19 7 0 7 -4 0 -13 -6 -7 -9 -22 -8 -32 2 -11 -1 -25 -6 -32
-18 -23 -20 -111 -2 -138 26 -39 34 -30 34 38 0 37 5 68 12 76 11 10 10 14 -3
21 -13 8 -15 18 -9 48 4 21 10 44 15 51 11 19 84 5 112 -21 14 -13 36 -21 62
-22 23 0 42 -5 43 -11 0 -5 2 -14 2 -20 1 -5 4 -14 7 -20 3 -5 6 -26 7 -45 2
-19 7 -65 13 -102 8 -53 15 -69 31 -74 40 -12 47 19 29 136 -6 40 -6 69 0 74
5 6 38 10 73 9 47 0 63 3 60 12 -9 21 25 26 36 5 12 -23 76 -25 98 -3 10 10
10 13 1 13 -7 0 -9 3 -6 7 4 3 37 8 74 9 38 2 74 6 81 9 7 2 15 -2 19 -11 4
-12 8 -13 14 -3 9 16 17 17 164 23 66 3 152 8 190 12 81 7 72 7 108 5 15 0 27
-5 27 -9 0 -28 -120 -41 -378 -44 -69 0 -92 -4 -92 -14 0 -19 -9 -22 -76 -29
-32 -4 -62 -9 -66 -11 -11 -7 -135 -22 -190 -24 -22 0 -24 -26 -3 -34 19 -7
281 -10 292 -3 7 4 109 9 428 22 55 2 137 7 183 11 107 8 207 14 360 19 68 3
127 7 130 9 26 15 1179 24 1427 11 213 -11 560 -13 572 -3 9 7 13 7 13 -1 0
-6 11 -11 25 -11 14 0 25 5 25 11 0 20 33 39 48 27 9 -8 16 -8 24 0 18 18 46
14 53 -8 3 -11 12 -21 18 -21 42 -6 54 -1 69 24 24 38 46 34 39 -7 -2 -11 19
-26 38 -26 8 0 11 7 8 20 -3 11 -1 23 5 26 5 3 68 6 140 6 72 -1 139 3 149 9
11 6 20 5 24 -1 3 -5 15 -10 26 -10 12 0 19 -5 16 -12 -2 -7 -11 -13 -20 -13
-9 0 -22 -6 -29 -13 -11 -11 -8 -13 17 -11 17 2 35 0 42 -4 7 -4 14 0 18 12
11 35 32 39 230 41 28 1 58 3 68 6 9 3 17 1 17 -4 0 -12 75 -13 106 -2 15 6
24 6 24 0 0 -5 10 -9 23 -8 60 2 87 -3 87 -17 0 -9 -6 -12 -16 -8 -11 4 -15 2
-12 -7 3 -10 29 -14 88 -17 47 -1 91 -5 98 -8 19 -7 8 -23 -78 -113 -41 -43
-109 -115 -150 -160 -41 -46 -109 -117 -150 -160 -42 -42 -103 -109 -138 -148
-34 -39 -78 -79 -97 -90 -19 -10 -35 -24 -35 -30 0 -16 40 -5 47 12 3 8 10 14
17 14 6 0 56 47 110 105 54 58 102 103 105 100 3 -4 1 -9 -5 -13 -14 -9 -27
-45 -14 -37 6 3 10 1 10 -5 0 -6 5 -8 10 -5 6 3 10 3 10 -2 -1 -12 -26 -43
-35 -43 -4 0 -2 7 5 15 7 9 10 18 7 21 -11 11 -26 -6 -38 -44 -13 -40 -69
-118 -123 -170 -35 -34 -54 -88 -36 -106 12 -12 13 -29 1 -22 -5 3 -11 0 -14
-8 -4 -10 0 -12 14 -9 11 3 19 14 19 28 0 14 9 26 26 34 24 10 25 10 18 -11
-9 -30 -90 -135 -113 -148 -14 -7 -22 -6 -31 5 -19 23 -4 62 27 72 27 9 27 10
5 15 -12 4 -20 2 -16 -3 3 -5 -6 -9 -20 -9 -39 0 -51 -32 -31 -83 l17 -42 -28
-21 c-18 -15 -25 -28 -21 -38 6 -15 9 -15 39 0 18 10 62 19 98 21 36 2 86 6
112 9 57 7 71 -11 45 -60 -9 -17 -18 -47 -19 -65 l-3 -35 -82 -15 c-91 -18
-114 -31 -93 -56 7 -8 19 -15 26 -15 8 0 14 -5 14 -11 0 -5 -4 -7 -10 -4 -5 3
-10 2 -10 -4 0 -6 -7 -8 -15 -5 -9 4 -15 0 -15 -10 0 -26 47 -20 66 9 9 14 24
25 33 23 9 -1 26 5 39 13 12 9 34 15 47 13 14 -1 25 3 25 10 0 6 12 13 26 14
14 1 31 5 37 9 7 4 18 8 27 9 8 1 27 5 43 9 17 5 27 3 27 -4 0 -6 9 -11 21
-11 13 0 18 4 13 13 -6 9 -4 9 8 -1 9 -7 18 -9 20 -4 4 13 48 -4 48 -18 0 -6
-8 -13 -17 -16 -34 -10 -78 -37 -88 -53 -15 -25 -14 -41 1 -41 8 0 14 10 15
23 0 21 1 21 8 2 5 -11 7 -22 6 -25 -6 -11 86 -2 100 10 8 6 20 8 26 4 8 -4 9
-3 5 5 -5 7 -25 9 -62 5 -31 -3 -54 -1 -54 4 0 19 63 60 116 77 11 3 13 12 9
27 -5 20 -4 21 7 7 17 -21 58 -8 58 18 0 12 3 14 8 6 8 -13 76 -19 112 -9 14
4 46 8 72 10 25 2 50 6 57 10 6 4 11 4 11 0 0 -3 7 -1 15 6 8 7 15 9 15 5 0
-4 7 -2 16 6 14 12 14 14 -1 25 -12 9 -23 9 -44 1 -15 -6 -37 -7 -47 -2 -12 5
-15 9 -6 12 6 3 12 12 12 21 0 12 3 13 8 5 6 -10 16 -10 43 -2 107 33 133 30
104 -15 -17 -25 -17 -29 -2 -43 14 -15 18 -15 41 0 13 9 39 37 57 62 20 27 41
45 53 46 12 0 45 2 74 3 42 2 52 0 52 -13 0 -9 6 -24 14 -33 10 -13 15 -15 24
-6 7 7 12 18 12 25 0 7 5 13 10 13 6 0 16 12 23 28 6 15 18 32 25 37 7 6 14
20 15 32 0 12 5 19 9 17 11 -7 88 54 88 70 0 17 50 62 77 71 13 3 26 17 29 30
3 13 14 31 25 41 10 9 19 22 19 27 0 5 8 16 18 23 16 13 16 13 -1 14 -10 0
-38 -20 -62 -44 -43 -42 -47 -44 -125 -50 -53 -5 -86 -4 -94 3 -7 6 -16 7 -21
3 -4 -4 4 16 20 45 18 34 38 56 57 64 16 6 41 28 56 48 15 19 57 65 95 101 37
36 67 70 67 75 0 6 21 25 45 44 25 18 45 40 45 47 0 8 3 13 8 13 18 -3 30 2
52 24 14 12 54 46 90 74 36 29 79 65 95 81 17 15 50 40 75 56 25 16 58 42 73
58 15 15 49 45 75 65 26 21 49 40 52 43 3 3 32 27 65 55 33 27 70 60 82 72 12
13 27 23 32 23 6 0 36 25 68 57 32 31 76 70 99 87 157 118 233 177 257 200 29
27 47 33 47 16 0 -19 32 -10 37 10 3 11 9 20 13 20 8 0 23 34 25 54 0 13 25
20 25 8 0 -17 40 -1 55 21 24 34 19 67 -8 67 -20 0 -67 46 -67 65 0 3 -16 21
-35 41 -38 38 -43 55 -20 74 8 7 15 21 15 32 0 16 -4 19 -22 13 -62 -19 -61
-19 -138 65 -40 45 -79 92 -85 104 -16 30 -53 84 -108 157 -27 35 -67 100 -89
144 -22 44 -43 82 -47 85 -5 4 -25 40 -78 143 -8 15 -19 27 -24 27 -5 0 -9 6
-9 14 0 22 -46 100 -82 140 -16 17 -18 18 -18 3 0 -9 5 -17 10 -17 6 0 10 -6
9 -12 -2 -21 13 -58 24 -58 6 0 7 -3 4 -7 -11 -11 14 -32 30 -26 13 5 15 1 11
-20 -3 -15 0 -28 7 -31 7 -2 17 -24 23 -49 7 -24 18 -50 27 -57 8 -7 15 -18
15 -25 0 -6 9 -20 20 -30 12 -11 20 -31 20 -48 l0 -31 -27 26 c-16 14 -36 28
-45 31 -11 4 -18 17 -18 32 0 30 -45 80 -62 69 -6 -4 -8 -3 -4 4 3 6 -2 15
-11 21 -10 6 -12 11 -5 11 14 0 -23 40 -38 40 -5 0 -9 3 -8 8 4 13 -36 72 -49
72 -7 0 -13 7 -13 16 0 15 -11 30 -67 91 -13 13 -23 27 -23 31 0 8 -27 42 -87
112 -18 21 -33 42 -33 48 0 5 -12 13 -27 17 -16 4 -23 9 -16 12 9 3 7 14 -7
37 -18 32 -66 86 -76 86 -10 0 -36 31 -31 36 3 3 -5 15 -17 27 -11 12 -39 44
-61 71 -22 27 -48 58 -58 69 -12 14 -16 30 -12 48 5 24 2 28 -27 38 -25 9 -48
33 -95 101 -35 49 -63 94 -63 101 0 8 -4 8 -15 -1 -12 -10 -16 -9 -21 4 -4 11
-13 15 -28 11 -14 -4 -17 -3 -8 3 14 10 7 37 -17 66 -9 10 -15 21 -14 25 2 3
-4 6 -11 6 -8 0 -18 4 -23 9 -5 5 -2 6 6 1 9 -5 12 -3 9 6 -6 17 -68 43 -68
28z m-996 -332 c7 -6 6 -7 -4 -4 -8 2 -16 12 -17 23 -2 13 -1 15 4 4 3 -8 11
-19 17 -23z m1216 13 c0 -5 -4 -10 -10 -10 -5 0 -10 5 -10 10 0 6 5 10 10 10
6 0 10 -4 10 -10z m-1121 -92 c1 -5 -3 -8 -7 -8 -5 0 -9 6 -10 13 -1 6 -4 26
-7 42 -5 28 -4 28 9 -5 8 -19 15 -38 15 -42z m901 32 c0 -5 -8 -10 -17 -10
-15 0 -16 2 -3 10 19 12 20 12 20 0z m140 -3 c0 -9 -11 -12 -35 -9 -41 5 -37
22 6 22 17 0 29 -5 29 -13z m-1304 -56 c-15 -14 -18 -14 -26 -1 -7 11 -4 17 8
21 26 10 36 -1 18 -20z m202 4 c-3 -3 -9 2 -12 12 -6 14 -5 15 5 6 7 -7 10
-15 7 -18z m1192 0 c0 -8 -2 -15 -4 -15 -2 0 -6 7 -10 15 -3 8 -1 15 4 15 6 0
10 -7 10 -15z m100 5 c0 -5 -5 -10 -11 -10 -5 0 -7 5 -4 10 3 6 8 10 11 10 2
0 4 -4 4 -10z m-1172 -23 c5 -24 -15 -21 -28 4 -10 18 -9 20 7 17 10 -2 19
-11 21 -21z m822 -29 c22 -23 40 -46 40 -50 0 -4 16 -25 35 -47 19 -21 68 -84
109 -140 61 -82 166 -205 264 -307 7 -7 40 -48 72 -91 104 -136 131 -168 163
-188 52 -32 100 -96 84 -111 -2 -2 -31 20 -63 51 -32 30 -75 63 -94 72 -19 10
-37 23 -39 28 -2 6 -22 26 -45 45 -22 19 -42 38 -44 42 -2 5 -10 8 -18 8 -8 0
-14 4 -14 10 0 5 -39 49 -87 98 -121 123 -293 340 -293 369 0 7 -4 13 -10 13
-5 0 -10 5 -10 12 0 6 -12 27 -27 47 -29 37 -47 66 -59 91 -4 8 -15 24 -24 35
-31 36 -32 55 -5 55 15 0 39 -15 65 -42z m-384 11 c6 -5 15 -4 22 3 8 8 15 8
27 -2 12 -10 15 -10 15 4 0 14 9 16 57 13 60 -4 74 -15 158 -121 17 -20 38
-47 48 -58 9 -12 17 -24 17 -27 0 -3 16 -23 35 -43 19 -20 35 -40 35 -43 0 -4
18 -27 39 -53 22 -26 57 -72 78 -103 21 -30 65 -91 98 -135 77 -102 66 -89
129 -164 30 -36 53 -67 51 -69 -2 -2 -17 6 -33 18 -17 12 -35 21 -40 21 -6 0
-12 4 -14 8 -4 11 -116 82 -129 82 -6 0 -7 5 -4 10 3 6 -1 10 -10 10 -10 0
-13 5 -9 12 5 8 2 9 -9 5 -11 -4 -17 -1 -17 7 0 7 -15 21 -32 30 -18 8 -29 16
-24 16 14 0 -46 60 -60 60 -6 0 -18 10 -27 23 -8 12 -18 19 -22 15 -4 -4 -3
-14 3 -21 7 -8 10 -16 7 -19 -3 -2 11 -18 31 -34 19 -16 46 -38 59 -49 63 -54
101 -84 110 -85 6 -1 13 -8 18 -15 4 -7 39 -34 77 -60 38 -25 72 -50 75 -55 3
-5 34 -24 68 -42 36 -19 94 -64 138 -108 83 -83 158 -151 190 -174 12 -8 58
-48 103 -89 44 -41 97 -88 116 -106 33 -30 49 -28 36 5 -3 8 -11 12 -17 8 -8
-5 -9 -3 -4 5 11 19 -65 86 -78 69 -6 -10 -8 -9 -4 3 4 11 -9 28 -35 50 -23
19 -55 49 -71 67 -17 17 -35 32 -40 32 -6 0 -32 23 -59 50 -28 29 -42 50 -34
50 8 0 17 -4 20 -9 4 -5 34 -23 69 -40 116 -57 159 -90 256 -195 20 -22 59
-63 86 -92 148 -155 241 -258 252 -277 13 -24 17 -44 6 -34 -3 4 -13 1 -21 -6
-12 -9 -16 -9 -19 1 -3 6 -15 12 -28 12 -17 0 -24 7 -28 30 -4 18 -13 30 -22
30 -8 0 -15 8 -15 18 0 9 -20 39 -45 66 -25 27 -45 44 -45 37 0 -7 -5 -9 -11
-6 -6 4 -8 13 -5 21 7 17 -59 88 -74 79 -17 -11 -11 -29 18 -55 24 -22 80 -89
151 -180 28 -37 40 -85 30 -120 -6 -21 -7 -22 -9 -5 l-1 20 -9 -20 c-13 -31
-107 -118 -119 -111 -6 4 -11 3 -11 -2 0 -6 -6 -12 -14 -15 -10 -4 -14 0 -11
14 5 27 -10 24 -30 -7 -9 -15 -128 -137 -264 -273 -135 -136 -293 -298 -351
-361 -58 -63 -131 -141 -162 -174 -32 -34 -58 -65 -58 -71 0 -5 -39 -50 -87
-100 -48 -49 -88 -96 -90 -104 -1 -9 -7 -17 -12 -19 -6 -2 -11 -8 -11 -14 0
-12 -105 -136 -133 -156 -31 -24 -56 -55 -51 -64 3 -4 -2 -8 -10 -8 -9 0 -16
-4 -16 -8 0 -16 -51 -32 -103 -33 -47 0 -104 -8 -162 -22 -20 -5 -76 -11 -200
-23 -38 -3 -80 -12 -92 -20 -13 -8 -24 -10 -28 -4 -3 5 -15 6 -29 0 -25 -9
-56 3 -37 14 6 4 20 25 31 46 11 21 25 44 32 52 7 8 18 21 23 29 10 17 93 129
120 164 8 10 15 23 15 28 0 4 4 6 10 2 5 -3 17 7 27 22 10 15 32 44 50 63 18
19 33 38 33 43 0 4 8 15 18 25 9 10 22 26 27 34 6 8 31 44 58 79 26 34 47 67
47 72 0 5 7 15 15 23 8 8 18 21 22 28 5 7 40 33 78 57 39 24 76 49 83 56 7 7
18 13 23 13 5 0 9 11 9 25 0 21 5 25 30 25 17 0 46 6 64 14 18 8 45 12 60 9
21 -4 26 -2 26 14 0 20 -25 37 -67 46 -15 3 -23 0 -23 -9 0 -8 -9 -14 -20 -14
-13 0 -20 7 -20 20 0 11 -7 20 -15 20 -8 0 -15 -4 -15 -9 0 -11 -39 -25 -47
-18 -7 8 74 123 99 141 14 10 44 16 83 16 95 0 135 10 135 31 0 11 -9 21 -22
24 -70 15 -150 25 -158 20 -6 -4 -7 1 -3 12 5 14 -1 12 -29 -9 -37 -28 -54
-35 -43 -19 8 14 -9 21 -25 10 -12 -7 -12 -9 -2 -9 8 0 12 -5 10 -11 -6 -17
-88 -19 -88 -2 0 8 5 11 11 7 8 -4 9 1 4 16 -5 15 -1 28 15 45 12 12 20 29 18
37 -3 16 104 138 121 138 6 0 11 3 11 8 0 4 27 35 60 69 33 34 60 69 60 78 0
9 13 21 30 26 17 6 30 17 30 25 0 19 -16 18 -24 -1 -3 -8 -10 -15 -16 -15 -6
0 -45 -36 -87 -80 -43 -44 -83 -80 -89 -80 -7 0 -18 -8 -23 -17 -6 -10 -11
-13 -11 -8 0 6 -6 1 -13 -11 -35 -61 -208 -224 -237 -224 -22 0 -22 1 -7 18
10 10 17 22 17 25 0 4 8 15 18 25 9 10 36 39 60 65 23 26 46 47 51 47 5 0 11
7 15 15 9 23 -15 17 -53 -13 -40 -33 -63 -54 -118 -113 -23 -24 -48 -49 -56
-55 -12 -11 -102 -28 -237 -45 -36 -5 -85 -12 -110 -16 -25 -4 -63 -7 -85 -7
-132 2 -224 8 -250 17 -16 5 -107 11 -202 12 -95 2 -187 6 -205 9 -44 6 -333
22 -598 31 -74 3 -157 10 -185 15 -120 22 -494 47 -830 56 -332 8 -665 14
-775 14 -88 0 -244 12 -330 25 -19 3 -78 10 -130 15 -52 5 -115 14 -140 19
-25 5 -67 14 -95 19 -27 6 -97 20 -155 31 -58 12 -127 24 -155 27 -27 3 -81
11 -120 19 -138 26 -226 36 -318 37 -118 0 -115 0 -92 -16 18 -12 51 -16 220
-32 112 -10 281 -35 375 -55 58 -12 112 -23 120 -23 9 -1 21 -5 28 -10 7 -4
43 -10 80 -13 37 -3 71 -9 77 -14 5 -5 27 -9 49 -9 21 0 37 -3 33 -6 -6 -7
-76 -9 -567 -19 -315 -6 -407 -15 -446 -43 -20 -13 -52 -22 -101 -26 -86 -7
-82 -13 -86 133 -2 89 0 104 16 116 18 13 18 13 1 17 -21 4 -21 51 2 218 8 58
17 126 18 152 5 68 25 145 42 159 9 8 34 9 76 5 99 -11 147 -12 228 -4 312 30
546 47 735 53 88 3 175 8 194 11 18 3 88 6 155 6 66 0 159 4 206 9 47 4 126
10 175 14 185 12 358 26 364 29 3 2 47 7 96 11 50 4 99 9 110 12 39 9 108 13
278 15 170 3 704 -9 716 -16 3 -2 47 -4 96 -5 117 -2 337 -13 535 -26 86 -5
316 -18 375 -20 22 -1 56 -5 75 -9 19 -4 92 -8 162 -10 70 -3 133 -8 139 -12
9 -5 10 -1 7 14 -7 26 19 31 28 7 4 -11 21 -15 55 -15 27 0 49 -4 49 -8 0 -5
7 -9 15 -9 8 0 15 6 15 14 0 7 5 13 10 13 6 0 10 -6 10 -14 0 -17 35 -25 115
-26 70 0 102 -4 111 -12 3 -3 20 -2 37 3 39 11 40 11 32 -1 -3 -5 -2 -10 4
-10 5 0 13 5 16 11 4 6 13 8 21 5 8 -3 14 -1 14 4 0 5 -10 11 -22 13 -18 3
-16 5 7 6 17 0 41 -2 54 -6 l23 -6 -22 -12 -23 -12 27 -5 c19 -4 26 -1 26 11
1 14 2 14 11 -1 5 -10 15 -18 22 -19 7 0 23 -24 37 -52 18 -36 32 -52 45 -52
17 0 20 6 17 43 -4 40 -3 43 20 37 12 -3 30 -1 38 5 12 8 8 17 -28 52 -23 24
-42 51 -42 60 0 31 -24 69 -52 84 -34 18 -65 83 -46 96 7 5 37 7 65 4 51 -4
75 6 57 24 -5 5 -34 11 -64 15 -30 3 -62 8 -71 11 -16 4 -37 75 -55 179 -4 22
-11 48 -16 58 -7 14 -5 22 9 32 17 14 17 16 -10 65 -15 28 -25 55 -22 59 3 5
-2 11 -10 14 -22 9 -59 73 -94 167 -53 137 -91 197 -191 299 -30 31 -63 65
-72 77 l-17 20 152 -4 c83 -2 157 -8 163 -13z m563 -29 c0 -9 -6 -4 -14 10
-19 33 -19 49 0 24 8 -10 14 -26 14 -34z m-972 4 c-3 -3 -12 -4 -19 -1 -8 3
-5 6 6 6 11 1 17 -2 13 -5z m-87 -24 c0 -5 -2 -10 -4 -10 -3 0 -8 5 -11 10 -3
6 -1 10 4 10 6 0 11 -4 11 -10z m99 -20 c5 -16 15 -30 20 -30 6 0 11 -7 11
-16 0 -9 7 -28 15 -42 20 -37 55 -119 55 -129 0 -4 -10 7 -21 25 -12 17 -25
32 -30 32 -5 0 -8 4 -6 8 3 10 -64 144 -77 153 -10 8 0 29 14 29 4 0 13 -13
19 -30z m1137 -44 c9 -16 20 -34 25 -40 5 -6 39 -56 76 -111 36 -55 80 -118
97 -140 18 -22 45 -60 60 -84 21 -33 30 -40 37 -30 7 11 9 9 9 -7 0 -12 6 -24
14 -27 8 -3 15 -14 15 -24 -1 -10 3 -29 7 -42 l7 -24 -26 19 c-15 10 -27 22
-27 26 0 4 -19 27 -42 52 -24 24 -60 62 -81 85 -21 23 -43 41 -48 41 -5 0 -9
9 -9 19 0 25 -41 90 -57 91 -8 0 -13 13 -13 33 0 24 -3 28 -10 17 -10 -16 -14
-8 -11 23 2 10 -5 17 -14 17 -10 0 -13 4 -8 13 18 28 -2 64 -63 116 -12 10
-13 16 -6 19 7 2 12 11 12 20 0 13 5 11 21 -8 11 -14 27 -38 35 -54z m201
-231 c1 -15 0 -15 -3 -3 -3 10 -11 15 -20 11 -8 -3 -14 0 -14 7 0 20 35 6 37
-15z m105 -10 c-2 -14 -8 -25 -13 -25 -12 0 -11 7 1 31 14 26 18 24 12 -6z
m-1455 -11 c-3 -3 -12 -4 -19 -1 -8 3 -5 6 6 6 11 1 17 -2 13 -5z m58 -83 c7
-12 -12 -24 -25 -16 -11 7 -4 25 10 25 5 0 11 -4 15 -9z m1469 -26 c3 -8 1
-15 -4 -15 -6 0 -10 7 -10 15 0 8 2 15 4 15 2 0 6 -7 10 -15z m-1324 -25 c0
-5 -5 -10 -11 -10 -5 0 -7 5 -4 10 3 6 8 10 11 10 2 0 4 -4 4 -10z m160 -25
c0 -14 -4 -25 -10 -25 -5 0 -10 11 -10 25 0 14 5 25 10 25 6 0 10 -11 10 -25z
m69 -158 c1 -5 -3 -5 -9 -2 -5 3 -10 16 -9 28 0 21 1 21 9 2 5 -11 9 -24 9
-28z m1311 -28 c0 -5 -4 -9 -10 -9 -5 0 -10 7 -10 16 0 8 5 12 10 9 6 -3 10
-10 10 -16z m-453 -66 c19 -14 37 -22 44 -17 8 5 10 2 7 -8 -6 -14 29 -48 130
-127 23 -18 42 -37 42 -42 0 -11 -30 -1 -51 18 -9 7 -26 16 -39 18 -31 6 -75
45 -122 107 -15 20 -41 49 -58 66 -34 35 -42 64 -7 31 12 -11 36 -32 54 -46z
m186 2 c-3 -9 -8 -14 -10 -11 -3 3 -2 9 2 15 9 16 15 13 8 -4z m143 -91 c9
-13 14 -27 11 -30 -8 -8 -41 18 -45 36 -2 8 -7 17 -11 20 -9 6 -31 45 -31 55
0 9 57 -52 76 -81z m-6535 51 c3 -12 4 -35 1 -53 -4 -27 -8 -32 -32 -32 -25 0
-29 -5 -41 -50 -11 -44 -16 -50 -43 -55 -42 -8 -148 7 -153 21 -2 7 12 22 32
34 20 12 53 38 75 57 48 44 131 100 145 99 6 -1 13 -10 16 -21z m6730 -13 c12
-31 -5 -28 -20 4 -9 20 -9 25 0 22 7 -2 16 -14 20 -26z m-5736 -46 c33 -3 163
-7 290 -11 126 -4 233 -9 237 -11 4 -3 70 -7 146 -9 157 -4 345 -16 339 -21
-2 -3 -43 -6 -91 -9 -48 -2 -90 -6 -94 -8 -4 -3 -142 -6 -307 -7 -165 -2 -338
-4 -385 -6 -360 -10 -633 2 -678 30 -6 3 -23 -1 -38 -9 -29 -15 -27 -17 30
-30 50 -11 20 -17 -116 -23 -216 -10 -238 -9 -250 11 -5 10 -21 23 -35 28 -20
7 -23 13 -15 21 7 7 12 20 12 30 0 19 35 26 42 9 4 -11 138 -40 156 -33 22 8
12 22 -17 22 -16 0 -34 6 -40 14 -10 12 -7 15 21 18 41 5 710 -1 793 -6z
m1142 -22 c-3 -3 -12 -4 -19 -1 -8 3 -5 6 6 6 11 1 17 -2 13 -5z m4597 -29
c-4 -8 -8 -15 -10 -15 -2 0 -4 7 -4 15 0 8 4 15 10 15 5 0 7 -7 4 -15z m-1781
-15 c-3 -11 -7 -20 -9 -20 -2 0 -4 9 -4 20 0 11 4 20 9 20 5 0 7 -9 4 -20z
m1624 -12 c-3 -8 -6 -5 -6 6 -1 11 2 17 5 13 3 -3 4 -12 1 -19z m-1303 -4 c9
-22 8 -24 -9 -18 -8 4 -15 12 -15 20 0 19 16 18 24 -2z m1053 -16 c-3 -8 -6
-5 -6 6 -1 11 2 17 5 13 3 -3 4 -12 1 -19z m391 -33 c38 -43 53 -54 68 -48 17
6 17 5 6 -9 -11 -14 -10 -20 5 -36 24 -25 66 -102 55 -102 -11 0 -119 69 -108
70 5 0 0 10 -11 23 -24 25 -63 89 -81 130 -20 46 11 33 66 -28z m-2075 28 c-7
-2 -19 -2 -25 0 -7 3 -2 5 12 5 14 0 19 -2 13 -5z m87 -3 c0 -5 -9 -10 -20
-10 -11 0 -20 5 -20 10 0 6 9 10 20 10 11 0 20 -4 20 -10z m375 -5 c186 -6
175 -3 175 -35 0 -34 10 -44 24 -24 10 14 14 13 30 -5 15 -17 16 -23 6 -36
-10 -13 -17 -12 -53 8 -23 12 -45 27 -49 32 -4 6 -34 10 -68 11 -33 0 -62 3
-65 6 -3 3 -19 3 -36 -1 -42 -8 -129 -1 -129 11 0 6 7 8 15 5 8 -4 17 -2 20 3
4 6 -11 11 -32 12 -21 1 -49 3 -63 4 -14 1 -49 2 -78 3 -31 0 -51 5 -47 11 3
5 46 7 103 4 53 -3 165 -7 247 -9z m-2148 -1 c-3 -3 -12 -4 -19 -1 -8 3 -5 6
6 6 11 1 17 -2 13 -5z m1642 -35 c5 7 11 9 14 4 4 -6 -5 -15 -18 -21 -23 -10
-25 -9 -25 11 0 18 2 19 10 7 8 -12 11 -13 19 -1z m2016 1 c-3 -5 -10 -10 -16
-10 -5 0 -9 5 -9 10 0 6 7 10 16 10 8 0 12 -4 9 -10z m-3778 -25 c281 -4 294
-5 289 -13 -9 -16 -201 -19 -431 -7 -181 9 -259 21 -146 23 41 1 76 4 78 6 3
3 11 2 18 -1 8 -2 94 -6 192 -8z m783 -11 c0 -13 6 -15 28 -9 15 4 32 7 37 6
6 0 29 -2 52 -4 56 -5 100 -41 56 -44 -10 -1 -37 -3 -61 -6 -23 -2 -45 -1 -47
3 -3 4 -26 8 -52 8 -27 0 -55 3 -64 7 -9 3 -36 5 -60 4 -61 -4 -183 0 -178 5
5 5 36 8 192 22 42 4 77 11 77 15 0 5 5 9 10 9 6 0 10 -7 10 -16z m265 5 c11
-16 1 -19 -13 -3 -7 8 -8 14 -3 14 5 0 13 -5 16 -11z m-3582 -6 c-7 -2 -19 -2
-25 0 -7 3 -2 5 12 5 14 0 19 -2 13 -5z m1522 -27 l240 -12 -170 -7 c-93 -4
-222 -10 -285 -13 -109 -5 -682 -5 -800 0 -30 2 -73 4 -94 4 -22 1 -37 5 -34
8 6 5 43 8 248 19 273 14 335 18 339 21 5 4 267 -5 556 -20z m4830 14 c3 -5 1
-10 -4 -10 -6 0 -11 5 -11 10 0 6 2 10 4 10 3 0 8 -4 11 -10z m-6434 -47 c7
-7 32 -13 56 -13 59 0 139 -19 154 -36 13 -15 44 -20 34 -5 -3 5 -1 12 4 15 5
4 175 6 378 6 202 0 451 0 553 0 102 0 244 2 315 5 268 10 361 12 390 5 38 -8
-136 -28 -310 -35 -66 -3 -138 -8 -160 -10 -43 -6 -212 -12 -476 -19 -92 -3
-193 -7 -225 -10 -33 -3 -86 -8 -119 -10 -76 -6 -272 -23 -395 -35 -52 -5
-115 -8 -140 -7 -25 2 -64 4 -86 5 -37 1 -43 4 -49 29 -7 27 -7 27 -18 5 -5
-13 -14 -23 -18 -23 -10 0 -1 120 10 134 13 15 87 14 102 -1z m-244 -89 c-3
-41 -10 -81 -15 -87 -6 -7 -12 -21 -16 -32 -3 -11 -3 20 -1 68 5 81 16 127 32
127 3 0 3 -34 0 -76z m6765 9 c8 -10 7 -12 -3 -8 -16 6 -39 51 -31 60 4 3 10
-4 15 -17 4 -12 13 -28 19 -35z m219 19 c9 2 13 -4 11 -16 -3 -14 1 -17 13
-12 11 4 15 2 12 -6 -5 -16 10 -48 23 -48 6 0 10 7 10 16 0 8 4 13 10 9 5 -3
7 -12 4 -20 -4 -9 7 -30 25 -50 36 -41 39 -55 11 -55 -11 0 -20 4 -20 10 0 5
-13 23 -30 40 -16 17 -30 35 -30 41 0 6 -13 22 -30 36 -16 13 -30 31 -30 39 0
8 -3 14 -8 14 -4 0 -13 10 -21 23 l-14 22 25 -23 c14 -13 32 -22 39 -20z m-21
-181 c0 -6 -4 -13 -10 -16 -5 -3 -10 1 -10 9 0 9 5 16 10 16 6 0 10 -4 10 -9z
m143 -33 c25 -26 31 -58 10 -58 -23 0 -73 33 -73 47 0 7 7 13 15 13 8 0 15 5
15 10 0 15 8 12 33 -12z m-7201 -88 c-1 -74 -4 -88 -45 -173 -24 -51 -51 -108
-60 -127 -13 -28 -17 -31 -23 -17 -3 9 -1 30 5 45 9 22 47 157 65 233 7 26 36
112 42 121 12 19 17 -4 16 -82z m7268 76 c7 -9 8 -21 3 -30 -7 -13 -12 -11
-26 14 -15 25 -15 30 -4 30 8 0 20 -7 27 -14z m55 -64 c-2 -2 -12 2 -23 9 -16
10 -18 16 -8 31 10 17 12 17 23 -9 6 -15 10 -29 8 -31z m-61 -38 c24 -9 60
-44 46 -44 -5 0 -10 -7 -10 -15 0 -8 -3 -14 -7 -13 -5 1 -19 -2 -32 -6 -21 -7
-29 -4 -48 20 -63 77 -63 77 -12 71 24 -3 53 -9 63 -13z m90 -23 c4 -5 3 -17
0 -26 -5 -13 -8 -14 -15 -3 -5 7 -9 19 -9 26 0 14 16 16 24 3z m-124 -75 c0
-3 -4 -8 -10 -11 -5 -3 -10 -1 -10 4 0 6 5 11 10 11 6 0 10 -2 10 -4z m130 -6
c0 -5 -4 -10 -10 -10 -5 0 -10 5 -10 10 0 6 5 10 10 10 6 0 10 -4 10 -10z m55
0 c3 -5 1 -10 -4 -10 -6 0 -11 5 -11 10 0 6 2 10 4 10 3 0 8 -4 11 -10z m-145
-14 c0 -2 -7 -7 -16 -10 -8 -3 -12 -2 -9 4 6 10 25 14 25 6z m270 -41 c15 -18
17 -16 -46 -60 -47 -34 -49 -34 -56 -14 -7 17 -1 28 29 55 43 37 55 41 73 19z
m-7460 -25 c0 -16 -4 -30 -10 -30 -5 0 -8 10 -6 23 3 12 5 25 5 30 2 21 11 3
11 -23z m7185 -31 c-4 -6 -13 -8 -20 -5 -7 2 -18 -1 -24 -7 -6 -6 -13 -8 -16
-5 -4 3 1 12 10 19 9 8 21 19 28 25 9 9 14 8 20 -2 4 -8 5 -19 2 -25z m85 -30
c0 -5 4 -8 9 -4 5 3 13 0 16 -5 8 -14 -23 -50 -42 -50 -8 0 -80 -66 -161 -147
-81 -82 -152 -149 -158 -150 -6 -1 -27 -17 -46 -35 -47 -44 -56 -51 -122 -93
-31 -20 -62 -45 -69 -55 -6 -11 -19 -20 -28 -20 -9 0 -24 -9 -34 -20 -22 -24
-95 -63 -95 -51 0 11 51 74 64 80 6 2 27 21 48 41 32 33 35 40 23 50 -8 7 -15
19 -15 27 0 13 3 13 16 2 13 -11 14 -9 9 14 -9 33 1 34 26 5 16 -18 19 -19 19
-4 0 10 6 16 13 13 19 -6 111 89 104 107 -4 9 -2 16 2 16 5 0 11 -4 13 -10 3
-10 62 35 108 83 15 15 30 27 34 27 3 0 14 8 25 18 58 55 215 170 234 171 4 1
7 -4 7 -10z m70 -27 c0 -5 -9 -17 -20 -27 -19 -18 -20 -17 -20 3 0 18 11 29
33 31 4 1 7 -3 7 -7z m-7365 -108 c-10 -69 -25 -63 -25 10 0 42 4 66 13 69 16
5 20 -25 12 -79z m7002 24 c-3 -8 -6 -5 -6 6 -1 11 2 17 5 13 3 -3 4 -12 1
-19z m-185 -73 c-15 -13 -29 -21 -31 -19 -7 7 41 54 50 48 5 -3 -3 -16 -19
-29z m-6882 -30 c7 -9 20 -15 29 -14 9 1 24 -1 34 -6 10 -4 23 -2 32 5 9 7 17
11 20 9 6 -6 9 -128 3 -134 -3 -3 -34 -7 -69 -9 -35 -3 -73 -6 -84 -8 -18 -3
-20 2 -17 46 3 59 19 126 31 126 5 0 14 -7 21 -15z m1985 -115 c3 -5 1 -10 -4
-10 -6 0 -11 5 -11 10 0 6 2 10 4 10 3 0 8 -4 11 -10z m91 1 c-3 -5 -15 -7
-26 -4 -28 7 -25 13 6 13 14 0 23 -4 20 -9z m3414 -67 c0 -8 -5 -12 -10 -9 -6
4 -8 11 -5 16 9 14 15 11 15 -7z m-100 -13 c0 -8 -72 -21 -114 -21 -20 1 -19
2 4 15 27 16 110 20 110 6z m-1138 -41 c6 0 17 8 25 18 10 13 13 13 11 2 -2
-10 4 -14 17 -13 11 1 27 0 35 -3 8 -3 61 -5 118 -5 56 1 108 2 115 2 33 0
195 -13 216 -17 33 -7 18 -17 -64 -43 -58 -18 -97 -22 -223 -24 -83 -1 -152 2
-152 6 0 4 -24 6 -52 4 -29 -2 -65 0 -80 4 -17 5 -28 4 -28 -2 0 -6 -5 -7 -10
-4 -10 6 -50 9 -305 20 -60 2 -162 7 -225 11 -63 4 -140 8 -170 9 -130 6 -278
18 -310 25 -32 7 -31 8 20 9 30 0 150 3 265 6 250 7 419 7 535 1 57 -3 87 0
92 8 4 6 8 7 8 1 0 -16 134 -9 139 7 4 9 6 7 9 -4 2 -10 8 -18 14 -18z m2352
-40 c-108 -116 -185 -192 -190 -187 -3 3 -1 14 5 24 6 10 11 14 11 9 0 -5 7
-3 15 4 12 10 13 16 3 28 -11 13 -11 14 0 8 13 -8 62 30 62 49 0 6 9 18 20 28
11 9 20 14 20 10 0 -3 9 5 21 18 11 13 30 35 41 49 13 14 23 20 26 12 2 -6
-14 -30 -34 -52z m-971 21 c-4 -29 11 -27 25 4 12 27 27 32 38 14 3 -6 -8 -24
-26 -41 -29 -26 -38 -29 -74 -23 -79 12 -81 14 -55 41 12 13 25 21 30 19 4 -3
10 -1 14 5 3 5 16 8 28 6 16 -2 21 -10 20 -25z m-2908 -17 c105 -4 208 -8 230
-9 22 -2 92 -6 155 -9 144 -8 317 -18 350 -21 14 -1 64 -3 113 -3 50 -1 87 -6
87 -12 0 -6 -137 -10 -382 -10 -211 -1 -489 -3 -618 -5 -188 -4 -528 -5 -610
-3 -15 0 -113 0 -363 -1 -98 -1 -128 2 -124 12 4 13 58 23 167 31 67 6 107 9
274 26 54 6 188 10 298 9 110 0 202 2 205 5 3 2 10 3 16 1 7 -2 98 -7 202 -11z
m2470 -2 c76 -2 85 -3 85 -14 0 -4 7 -8 16 -8 9 0 14 -7 12 -17 -3 -16 -17
-18 -148 -16 -80 1 -171 2 -203 3 -75 0 -66 14 20 30 38 7 71 18 76 24 5 8 9
8 15 -1 6 -9 13 -9 32 1 14 7 27 9 30 6 3 -3 32 -7 65 -8z m-3715 -13 c0 -3
-33 -9 -72 -12 -40 -3 -82 -8 -93 -11 -89 -19 -174 1 -93 22 37 9 258 10 258
1z m3900 1 c0 -5 -5 -10 -11 -10 -5 0 -7 5 -4 10 3 6 8 10 11 10 2 0 4 -4 4
-10z m-1580 -31 c0 -3 -9 -9 -20 -12 -19 -5 -27 3 -15 15 8 7 35 6 35 -3z
m1759 -9 c23 0 24 -1 9 -16 -12 -12 -26 -15 -53 -10 -36 7 -36 8 -19 27 12 13
21 16 28 9 5 -5 21 -10 35 -10z m1036 0 c3 -5 1 -10 -4 -10 -6 0 -11 5 -11 10
0 6 2 10 4 10 3 0 8 -4 11 -10z m-6255 -19 c0 -4 -15 -6 -32 -5 -18 1 -40 -2
-50 -7 -13 -7 -18 -6 -18 5 0 8 5 16 11 18 17 6 89 -3 89 -11z m3647 -17 c-3
-3 -12 -4 -19 -1 -8 3 -5 6 6 6 11 1 17 -2 13 -5z m1173 -4 c0 -5 -5 -10 -11
-10 -5 0 -7 5 -4 10 3 6 8 10 11 10 2 0 4 -4 4 -10z m1475 1 c3 -5 1 -12 -5
-16 -5 -3 -10 1 -10 9 0 18 6 21 15 7z m-5495 -21 c0 -5 -17 -9 -37 -9 -38 1
-38 1 -8 9 43 11 45 11 45 0z m163 3 c-7 -2 -21 -2 -30 0 -10 3 -4 5 12 5 17
0 24 -2 18 -5z m4161 -71 c-17 -26 -48 -64 -69 -83 -35 -31 -77 -61 -81 -57
-8 9 15 58 30 64 7 3 28 27 45 54 19 29 40 50 54 52 34 6 40 -2 21 -30z m241
-12 c-4 -12 -9 -19 -12 -17 -3 3 -2 15 2 27 4 12 9 19 12 17 3 -3 2 -15 -2
-27z m-165 2 c0 -24 -107 -153 -178 -214 -59 -52 -81 -48 -32 5 22 23 45 53
52 67 6 14 26 37 44 50 19 14 36 33 39 43 4 9 12 17 18 17 7 0 18 9 25 20 12
20 32 27 32 12z m865 -22 c3 -5 -1 -10 -10 -10 -9 0 -13 5 -10 10 3 6 8 10 10
10 2 0 7 -4 10 -10z m125 0 c0 -5 -4 -10 -10 -10 -5 0 -10 5 -10 10 0 6 5 10
10 10 6 0 10 -4 10 -10z m34 -54 c-10 -8 -21 -12 -24 -9 -3 2 4 11 14 19 11 7
22 12 25 9 2 -3 -4 -12 -15 -19z m-273 -59 c-17 -17 -24 -1 -9 22 11 18 14 19
16 5 2 -9 -1 -21 -7 -27z m239 34 c0 -5 -7 -12 -16 -15 -24 -9 -28 -7 -14 9
14 17 30 20 30 6z m-136 -47 c-4 -38 -14 -42 -14 -6 0 18 4 32 9 32 4 0 7 -12
5 -26z m-24 -34 c0 -5 -4 -10 -10 -10 -5 0 -10 5 -10 10 0 6 5 10 10 10 6 0
10 -4 10 -10z m-1090 -50 c0 -5 -4 -10 -10 -10 -5 0 -10 5 -10 10 0 6 5 10 10
10 6 0 10 -4 10 -10z m1005 -36 c-18 -18 -25 -18 -25 2 0 9 5 12 12 8 8 -5 9
-2 4 11 -5 15 -4 16 8 5 13 -10 13 -14 1 -26z m-1055 -36 c0 -19 -2 -20 -10
-8 -13 19 -13 30 0 30 6 0 10 -10 10 -22z m-56 -150 c-21 -24 -50 -52 -64 -63
-14 -11 -30 -26 -36 -34 -7 -9 -13 -10 -17 -4 -4 6 2 22 13 36 11 14 20 32 20
40 0 9 9 19 20 22 11 3 20 13 20 22 0 11 3 13 13 5 9 -8 19 -5 37 8 39 29 36
14 -6 -32z m116 22 c0 -5 -4 -10 -10 -10 -5 0 -10 5 -10 10 0 6 5 10 10 10 6
0 10 -4 10 -10z m-220 -50 c0 -5 -4 -10 -10 -10 -5 0 -10 5 -10 10 0 6 5 10
10 10 6 0 10 -4 10 -10z m110 -39 c0 -6 -22 -40 -50 -76 -34 -45 -50 -76 -50
-96 0 -16 -5 -29 -11 -29 -6 0 -8 8 -5 18 3 9 -10 -1 -31 -23 -119 -130 -145
-154 -198 -179 -31 -14 -64 -28 -73 -29 -31 -4 -27 18 6 33 18 9 30 19 26 23
-4 4 0 7 9 7 19 0 29 15 31 44 1 11 8 21 16 21 10 0 15 11 15 35 0 28 4 35 20
35 11 1 19 7 17 14 -1 7 2 9 8 6 7 -4 14 2 17 14 3 12 10 20 17 19 17 -3 86
44 162 111 73 65 74 66 74 52z m-401 -206 c-12 -20 -29 -35 -40 -35 -27 0 -23
14 12 44 42 36 52 33 28 -9z m1241 -95 l25 -1 -24 -19 c-13 -11 -31 -20 -41
-20 -9 0 -30 -12 -45 -26 -15 -14 -34 -23 -42 -19 -9 3 -21 1 -27 -4 -17 -14
-69 -17 -73 -5 -5 14 39 47 82 62 26 9 27 11 8 11 -13 1 -23 5 -23 10 0 15 30
20 85 15 28 -2 61 -4 75 -4z m-810 -71 c0 -8 -38 -19 -69 -19 -15 0 -21 4 -15
9 15 15 84 23 84 10z m-100 -18 c0 -6 -3 -12 -7 -14 -13 -8 -148 -20 -141 -12
3 3 14 8 25 10 10 2 18 4 18 5 0 1 15 3 32 4 18 1 36 6 40 9 10 10 33 8 33 -2z
m630 -44 c0 -5 -4 -5 -10 -2 -5 3 -10 14 -10 23 0 15 2 15 10 2 5 -8 10 -19
10 -23z m-165 -6 c-3 -6 -18 -11 -33 -10 l-27 1 30 13 c32 14 41 13 30 -4z
m345 9 c0 -5 -6 -10 -13 -10 -8 0 -19 -12 -26 -26 -13 -29 -34 -28 -39 2 -2
14 6 23 25 31 37 14 53 15 53 3z m-467 -20 c-11 -10 -90 -24 -80 -14 12 12 71
31 80 26 5 -2 5 -8 0 -12z m-553 -20 c0 -5 -5 -10 -11 -10 -5 0 -7 5 -4 10 3
6 8 10 11 10 2 0 4 -4 4 -10z m38 -31 c18 -6 29 -15 26 -20 -3 -5 -10 -7 -15
-4 -5 4 -9 -2 -10 -12 0 -10 -3 -13 -5 -7 -6 15 -44 6 -44 -10 0 -6 -5 -3 -11
7 -8 14 -7 23 7 38 9 10 18 19 19 19 1 0 16 -5 33 -11z m340 -24 c28 3 61 1
73 -3 17 -7 6 -12 -52 -24 -41 -9 -117 -26 -169 -37 -52 -12 -110 -24 -127
-27 -18 -4 -33 -9 -33 -13 0 -3 -15 -6 -32 -6 -18 -1 -54 -5 -81 -9 l-47 -8
16 29 c11 18 26 30 42 31 13 1 48 9 76 18 68 21 183 44 223 44 17 0 35 5 39
11 4 8 8 8 13 0 4 -6 28 -8 59 -6z"/>
<path d="M5938 4223 c6 -2 18 -2 25 0 6 3 1 5 -13 5 -14 0 -19 -2 -12 -5z"/>
<path d="M5990 4117 c0 -17 68 -117 80 -117 6 0 10 -4 10 -10 0 -5 10 -19 23
-32 12 -13 35 -40 51 -60 16 -21 33 -35 38 -32 4 3 8 1 8 -5 0 -6 10 -19 22
-31 20 -19 23 -19 31 -3 7 12 5 21 -9 32 -52 44 -183 200 -172 204 7 2 11 6 8
9 -64 55 -90 69 -90 45z"/>
<path d="M6266 3813 c-7 -18 40 -67 55 -57 19 11 10 29 -32 62 -14 10 -18 10
-23 -5z"/>
<path d="M845 2410 c-8 -13 9 -20 24 -11 10 6 9 10 -3 14 -8 3 -18 2 -21 -3z"/>
<path d="M6360 2186 c0 -7 7 -19 15 -26 12 -10 16 -9 21 3 3 9 3 21 -1 27 -9
15 -35 12 -35 -4z"/>
<path d="M7310 2029 c0 -5 5 -7 10 -4 6 3 10 8 10 11 0 2 -4 4 -10 4 -5 0 -10
-5 -10 -11z"/>
<path d="M6924 4448 c-4 -6 -3 -13 2 -15 22 -8 34 -21 68 -78 20 -33 36 -56
36 -51 0 17 29 -28 30 -45 0 -9 7 -22 15 -29 8 -6 14 -15 13 -18 -2 -20 4 -32
16 -32 9 0 12 -7 9 -20 -4 -15 -2 -19 10 -14 11 4 13 12 7 33 -9 33 -32 71
-42 71 -4 0 -5 7 -2 15 4 8 1 15 -6 15 -6 0 -8 5 -4 11 3 6 2 14 -3 18 -6 3
-20 25 -32 49 -12 24 -28 45 -36 49 -8 3 -15 9 -15 15 0 29 -52 49 -66 26z"/>
<path d="M7128 4128 c-7 -21 19 -82 51 -116 42 -46 42 -18 -1 66 -32 62 -43
73 -50 50z"/>
<path d="M4873 4033 c-7 -2 -13 -16 -13 -29 0 -20 5 -24 30 -24 23 0 30 -5 30
-18 0 -14 8 -19 30 -20 20 0 30 4 30 14 0 8 -10 14 -25 14 -14 0 -25 4 -25 10
0 5 7 6 17 3 11 -4 14 -3 9 6 -5 7 -18 10 -31 7 -15 -4 -25 -1 -29 10 -4 9 -2
13 5 8 7 -4 10 -1 7 6 -5 16 -18 20 -35 13z"/>
<path d="M7215 3960 c3 -5 -2 -10 -12 -10 -17 -1 -17 -2 2 -18 11 -10 21 -24
23 -32 2 -8 8 -17 13 -18 5 -2 6 -8 3 -14 -4 -6 10 -25 30 -43 25 -22 34 -37
30 -49 -3 -9 -2 -16 4 -16 25 0 19 57 -9 80 -3 3 -21 33 -40 67 -19 35 -38 63
-42 63 -5 0 -5 -4 -2 -10z"/>
<path d="M5035 3907 c39 -34 85 -53 85 -36 0 5 -7 9 -15 9 -8 0 -15 8 -16 18
0 12 -2 13 -6 3 -4 -11 -9 -10 -22 6 -9 12 -27 24 -41 28 -21 5 -19 1 15 -28z"/>
<path d="M5130 3850 c0 -12 62 -52 69 -44 3 3 0 9 -7 13 -7 4 -12 14 -10 21 2
7 -3 15 -11 18 -9 3 -11 0 -6 -8 6 -9 3 -9 -14 -1 -14 8 -21 8 -21 1z"/>
<path d="M5244 3768 c10 -7 37 -27 61 -45 23 -18 45 -29 49 -26 3 4 6 1 6 -5
0 -11 71 -62 103 -75 9 -3 17 -2 17 3 0 6 -3 10 -7 10 -8 0 -26 14 -97 75 -15
14 -32 25 -36 25 -4 0 -13 6 -19 14 -6 8 -22 16 -34 19 -12 2 -31 7 -42 11
-19 7 -19 6 -1 -6z"/>
<path d="M7324 3756 c-4 -10 -2 -22 4 -28 8 -8 13 -7 18 6 4 10 2 22 -4 28 -8
8 -13 7 -18 -6z"/>
<path d="M5484 3599 c-3 -5 -1 -9 4 -9 4 0 18 -9 30 -20 15 -14 23 -16 28 -8
4 7 2 14 -4 16 -7 2 -10 7 -7 12 3 4 -7 10 -20 13 -14 2 -28 0 -31 -4z"/>
<path d="M5556 3551 c-7 -11 22 -36 31 -27 3 3 1 6 -5 6 -6 0 -9 7 -6 15 6 16
-11 21 -20 6z"/>
<path d="M5695 3320 c-3 -5 1 -10 9 -10 9 0 16 5 16 10 0 6 -4 10 -9 10 -6 0
-13 -4 -16 -10z"/>
<path d="M8280 2710 c0 -11 5 -20 10 -20 6 0 10 9 10 20 0 11 -4 20 -10 20 -5
0 -10 -9 -10 -20z"/>
<path d="M8237 2682 c-10 -10 -17 -24 -17 -30 0 -7 -4 -12 -9 -12 -5 0 -11 -7
-15 -15 -8 -22 10 -18 39 9 15 14 32 27 38 29 12 4 2 37 -11 37 -5 0 -16 -8
-25 -18z"/>
<path d="M7900 2270 c0 -5 5 -10 10 -10 6 0 10 5 10 10 0 6 -4 10 -10 10 -5 0
-10 -4 -10 -10z"/>
<path d="M7560 1965 c0 -9 6 -12 15 -9 8 4 12 10 9 15 -8 14 -24 10 -24 -6z"/>
<path d="M1115 1914 c-20 -15 -20 -15 3 -11 12 3 22 0 22 -6 0 -6 3 -8 6 -4 3
3 2 13 -3 21 -8 15 -11 15 -28 0z"/>
<path d="M1167 1915 c-6 -15 22 -30 34 -18 5 5 0 14 -10 20 -15 10 -20 9 -24
-2z"/>
<path d="M1050 1912 c0 -14 11 -21 26 -15 21 8 17 23 -6 23 -11 0 -20 -4 -20
-8z"/>
<path d="M4380 1880 c0 -5 7 -10 16 -10 8 0 12 5 9 10 -3 6 -10 10 -16 10 -5
0 -9 -4 -9 -10z"/>
<path d="M4772 1874 c-11 -12 -9 -14 8 -14 11 0 20 4 20 9 0 17 -15 19 -28 5z"/>
<path d="M4870 1881 c0 -5 -10 -7 -22 -5 -21 4 -22 4 -3 -5 29 -14 42 -13 49
4 3 9 0 15 -9 15 -8 0 -15 -4 -15 -9z"/>
<path d="M5093 1877 c2 -7 15 -12 28 -13 13 -1 50 -4 82 -8 58 -8 58 -7 47 14
-7 13 -18 19 -28 16 -24 -8 -83 -9 -110 -2 -16 3 -22 1 -19 -7z"/>
<path d="M5370 1869 c-12 -9 -11 -10 7 -6 13 3 26 1 29 -4 6 -11 24 -2 24 12
0 12 -41 11 -60 -2z"/>
<path d="M5466 1869 c3 -5 11 -9 19 -9 8 0 16 4 19 9 3 5 -5 9 -19 9 -14 0
-22 -4 -19 -9z"/>
<path d="M7425 1839 c-10 -15 3 -25 16 -12 7 7 7 13 1 17 -6 3 -14 1 -17 -5z"/>
<path d="M7161 1574 c-7 -8 -10 -18 -7 -21 7 -7 36 16 36 28 0 13 -13 10 -29
-7z"/>
<path d="M7102 1513 c-6 -2 -10 -9 -6 -14 8 -14 21 -11 28 6 6 15 1 17 -22 8z"/>
<path d="M7037 1445 c-4 -8 -2 -17 3 -20 6 -4 10 1 10 10 0 10 5 13 12 9 7 -4
8 -3 4 4 -10 16 -23 15 -29 -3z"/>
<path d="M7000 1404 c0 -14 3 -14 15 -4 8 7 15 14 15 16 0 2 -7 4 -15 4 -8 0
-15 -7 -15 -16z"/>
<path d="M6940 1350 c0 -5 5 -10 11 -10 5 0 7 5 4 10 -3 6 -8 10 -11 10 -2 0
-4 -4 -4 -10z"/>
<path d="M6880 1290 c0 -5 5 -10 11 -10 5 0 7 5 4 10 -3 6 -8 10 -11 10 -2 0
-4 -4 -4 -10z"/>
<path d="M6820 1224 c0 -8 -4 -13 -9 -10 -5 3 -12 -1 -15 -10 -9 -24 24 -13
42 14 13 20 13 22 -2 22 -9 0 -16 -7 -16 -16z"/>
<path d="M6775 1170 c-19 -8 -19 -9 3 -9 12 -1 22 4 22 9 0 6 -1 10 -2 9 -2 0
-12 -4 -23 -9z"/>
<path d="M6332 638 c-7 -7 -12 -19 -11 -27 0 -14 1 -14 6 -1 4 8 13 20 22 27
9 7 11 13 6 13 -6 0 -16 -5 -23 -12z"/>
<path d="M6295 560 c3 -5 8 -10 11 -10 2 0 4 5 4 10 0 6 -5 10 -11 10 -5 0 -7
-4 -4 -10z"/>
<path d="M6277 543 c-5 -7 -6 -13 -4 -13 3 0 -8 -13 -23 -30 -15 -16 -32 -30
-38 -30 -5 0 -12 -7 -16 -15 -3 -8 -13 -15 -23 -15 -24 -1 -56 -26 -51 -40 2
-7 17 -1 38 14 19 14 46 31 60 38 14 7 28 18 33 25 4 7 14 19 23 28 8 8 14 23
12 33 -3 12 -6 14 -11 5z"/>
<path d="M6016 495 c4 -8 8 -15 10 -15 2 0 4 7 4 15 0 8 -4 15 -10 15 -5 0 -7
-7 -4 -15z"/>
<path d="M6067 383 c-4 -3 -7 -13 -7 -22 1 -13 3 -13 11 2 11 19 8 33 -4 20z"/>
<path d="M5997 353 c-13 -13 -7 -21 13 -16 11 3 17 9 14 14 -6 11 -18 12 -27
2z"/>
</g>
</svg>
