<?xml version="1.0" standalone="no"?>
<!DOCTYPE svg PUBLIC "-//W3C//DTD SVG 20010904//EN"
 "http://www.w3.org/TR/2001/REC-SVG-20010904/DTD/svg10.dtd">
<svg version="1.0" xmlns="http://www.w3.org/2000/svg"
 width="324.000000pt" height="324.000000pt" viewBox="0 0 324.000000 324.000000"
 preserveAspectRatio="xMidYMid meet">

<g transform="translate(0.000000,324.000000) scale(0.100000,-0.100000)"
fill="#000000" stroke="none">
<path d="M1684 2805 c4 -11 -1 -15 -19 -15 -14 0 -25 5 -25 10 0 16 -53 12
-78 -6 -24 -17 -28 -35 -12 -65 9 -15 15 -17 30 -9 11 6 20 17 20 25 0 11 13
15 51 15 27 0 48 -4 45 -9 -3 -5 8 -14 25 -22 49 -20 88 -57 113 -108 31 -62
30 -54 81 -432 62 -454 84 -548 165 -710 57 -112 78 -118 33 -9 -20 50 -63
224 -63 258 0 41 21 56 67 47 115 -21 234 -96 296 -186 35 -51 83 -169 93
-228 3 -14 9 -50 14 -80 28 -158 -1 -395 -67 -550 -53 -124 -80 -168 -149
-240 -141 -149 -302 -203 -598 -201 -166 1 -213 8 -294 48 -149 72 -328 320
-403 557 -12 39 -29 80 -37 92 -11 18 -12 39 -7 95 9 87 25 131 57 151 52 34
59 29 89 -68 18 -58 25 -93 19 -99 -15 -15 -12 -26 8 -26 9 0 23 13 30 29 7
16 31 50 53 75 45 51 36 58 -28 22 -51 -29 -53 -26 -53 82 0 145 32 277 83
343 58 77 154 105 247 75 l51 -17 29 31 c15 16 36 30 45 30 23 0 21 18 -49
354 -31 148 -59 301 -63 340 -6 82 10 195 36 245 18 34 15 50 -17 101 -7 10
-52 -59 -67 -102 -27 -80 -30 -100 -29 -223 1 -113 5 -134 62 -355 33 -129 68
-257 76 -285 8 -27 14 -50 12 -52 -2 -2 -32 4 -66 13 -140 36 -267 -23 -334
-154 -10 -18 -30 -81 -45 -139 l-27 -105 -54 -37 c-77 -51 -112 -121 -118
-236 -4 -69 0 -98 17 -152 28 -85 272 -553 331 -634 77 -105 213 -174 397
-201 170 -25 289 19 425 155 56 56 103 93 143 112 82 40 199 158 246 250 90
174 124 342 116 584 -7 241 -46 356 -162 479 -116 125 -212 175 -332 176 l-83
0 -5 30 c-3 17 -16 141 -30 276 -14 135 -29 252 -32 260 -3 8 -5 26 -4 41 7
82 -58 257 -116 311 -49 47 -153 79 -139 43z m-154 -2552 c83 -22 294 -22 400
0 41 8 76 14 77 13 7 -7 -88 -91 -121 -108 -80 -41 -257 -40 -369 2 -75 28
-173 103 -204 157 l-24 41 88 -44 c48 -24 117 -52 153 -61z"/>
<path d="M1592 1673 c-7 -2 -17 -14 -23 -25 -9 -17 -6 -26 22 -54 36 -38 50
-41 69 -19 11 13 8 15 -14 15 -16 0 -26 5 -26 15 0 10 10 15 30 15 l31 0 -23
30 c-21 29 -38 35 -66 23z"/>
<path d="M1679 1551 l-26 -26 33 -60 c18 -32 46 -98 61 -145 27 -82 28 -84 31
-45 5 63 -17 195 -43 253 -13 28 -25 51 -27 51 -2 -1 -15 -13 -29 -28z"/>
<path d="M2026 898 c-13 -18 -16 -57 -16 -217 0 -120 4 -191 9 -185 11 11 71
316 71 361 0 26 -25 63 -43 63 -3 0 -13 -10 -21 -22z"/>
<path d="M2206 858 c-8 -51 -19 -264 -13 -258 9 9 67 237 67 263 0 22 -5 27
-25 27 -20 0 -25 -6 -29 -32z"/>
<path d="M1831 791 c-8 -14 -3 -54 19 -151 16 -73 32 -135 35 -138 4 -4 5 56
3 134 -2 101 -7 146 -17 157 -18 22 -28 21 -40 -2z"/>
</g>
</svg>
