<?xml version="1.0" standalone="no"?>
<!DOCTYPE svg PUBLIC "-//W3C//DTD SVG 20010904//EN"
 "http://www.w3.org/TR/2001/REC-SVG-20010904/DTD/svg10.dtd">
<svg version="1.0" xmlns="http://www.w3.org/2000/svg"
 width="599.000000pt" height="599.000000pt" viewBox="0 0 599.000000 599.000000"
 preserveAspectRatio="xMidYMid meet">

<g transform="translate(0.000000,599.000000) scale(0.100000,-0.100000)"
fill="#000000" stroke="none">
<path d="M2646 4935 c-139 -35 -260 -119 -338 -234 -94 -141 -123 -268 -122
-536 0 -171 4 -211 37 -408 28 -164 67 -421 67 -442 0 -1 -37 -5 -83 -8 -204
-14 -359 -129 -462 -342 -106 -219 -128 -462 -64 -725 23 -93 88 -241 140
-316 90 -131 230 -261 370 -344 54 -32 56 -34 67 -92 47 -250 270 -395 677
-439 135 -14 313 -6 415 20 246 63 429 223 516 455 23 60 41 85 113 161 96
100 139 161 199 280 88 176 140 390 161 657 10 121 0 270 -34 538 -36 280 -42
472 -20 643 20 158 17 289 -11 357 -46 117 -115 170 -220 170 -82 -1 -133 -27
-218 -113 -121 -121 -182 -260 -192 -437 -3 -52 -1 -122 4 -155 5 -33 8 -62 6
-64 -1 -2 -25 18 -51 44 -92 89 -265 152 -470 171 -40 4 -79 12 -87 18 -23 17
-36 273 -30 571 5 216 4 273 -10 334 -17 79 -44 141 -79 179 -57 62 -170 85
-281 57z m184 -63 c54 -27 94 -88 115 -177 16 -69 17 -106 12 -324 -13 -505
32 -825 155 -1090 21 -46 40 -82 42 -80 2 2 -7 50 -19 107 -28 123 -45 252
-45 345 0 78 -9 74 126 52 219 -35 343 -107 434 -251 49 -77 79 -145 109 -244
35 -116 42 -125 36 -45 -3 39 -20 138 -39 221 -48 210 -60 302 -53 405 18 246
193 479 360 479 62 0 105 -32 142 -104 39 -78 45 -194 20 -362 -23 -150 -16
-381 21 -654 37 -285 42 -506 15 -688 -73 -482 -273 -784 -626 -946 -131 -60
-128 -57 -45 -50 65 6 130 22 193 49 17 7 18 6 3 -28 -8 -20 -33 -63 -55 -95
-153 -226 -447 -325 -820 -278 -177 23 -265 47 -364 98 -120 62 -197 149 -223
252 l-6 26 71 -25 c124 -42 253 -65 363 -65 113 0 119 11 18 29 -107 20 -268
69 -380 117 -258 108 -475 303 -581 519 -135 277 -138 614 -7 885 32 67 57
101 117 161 89 89 167 126 272 131 l64 3 0 -342 c0 -188 3 -339 7 -335 13 14
56 140 74 218 16 65 19 118 18 294 -1 232 -9 310 -71 680 -34 199 -37 230 -37
420 0 180 3 215 22 285 31 112 75 196 138 264 111 120 325 193 424 143z"/>
<path d="M3404 2590 c8 -39 -11 -244 -34 -366 -22 -111 -74 -325 -109 -446
-11 -38 -16 -68 -12 -68 11 0 91 105 124 162 69 119 115 336 103 477 -8 89
-41 222 -63 248 -13 17 -14 16 -9 -7z"/>
<path d="M2979 2345 c4 -197 -12 -339 -64 -555 -6 -25 -6 -25 10 -5 30 35 92
177 106 240 27 125 8 319 -42 443 -13 30 -14 16 -10 -123z"/>
<path d="M3817 2430 c-3 -8 -16 -64 -27 -125 -28 -141 -79 -310 -130 -427 -22
-50 -37 -94 -35 -97 3 -2 7 -2 8 0 155 186 208 316 206 504 -1 105 -11 172
-22 145z"/>
</g>
</svg>
