<?xml version="1.0" standalone="no"?>
<!DOCTYPE svg PUBLIC "-//W3C//DTD SVG 20010904//EN"
 "http://www.w3.org/TR/2001/REC-SVG-20010904/DTD/svg10.dtd">
<svg version="1.0" xmlns="http://www.w3.org/2000/svg"
 width="200.000000pt" height="200.000000pt" viewBox="0 0 200.000000 200.000000"
 preserveAspectRatio="xMidYMid meet">

<g transform="translate(0.000000,200.000000) scale(0.100000,-0.100000)"
fill="#000000" stroke="none">
<path d="M886 1666 c-21 -8 -51 -26 -66 -41 -24 -23 -39 -27 -92 -30 -113 -5
-159 -40 -218 -167 -25 -54 -30 -78 -34 -167 -3 -95 -6 -108 -30 -138 -45 -56
-50 -83 -32 -173 16 -79 54 -163 101 -226 29 -39 147 -132 205 -164 49 -26 69
-46 70 -71 0 -8 17 -30 38 -49 35 -31 42 -33 123 -38 66 -3 93 0 117 12 17 9
44 16 60 16 19 0 39 11 60 33 27 28 32 41 32 80 0 42 4 51 35 78 19 17 48 58
65 92 26 55 31 75 34 167 3 101 5 109 46 190 38 75 44 95 48 167 7 125 -2 164
-53 225 -61 74 -111 101 -178 95 -29 -2 -61 -7 -72 -11 -17 -6 -27 2 -52 41
-17 27 -40 56 -50 65 -26 23 -110 31 -157 14z m136 -42 c32 -29 98 -130 114
-175 23 -68 18 -186 -12 -268 -36 -98 -45 -104 -114 -81 -30 11 -72 19 -93 20
-46 0 -53 14 -32 63 30 73 8 237 -45 336 l-30 55 22 24 c49 53 145 66 190 26z
m-266 -63 c30 -14 46 -30 61 -63 59 -125 66 -305 14 -352 -15 -14 -28 -15 -92
-6 -41 6 -81 13 -89 15 -25 8 -72 97 -79 150 -3 28 -10 50 -16 50 -19 0 -16
-80 5 -129 23 -56 20 -67 -18 -57 l-27 8 1 101 c1 87 5 108 27 154 28 56 88
125 122 139 30 12 46 10 91 -10z m532 -45 c35 -19 85 -72 107 -115 70 -139
-27 -422 -150 -437 -47 -6 -99 17 -128 58 l-20 27 36 73 c57 113 64 208 26
341 -12 42 -11 49 1 57 23 14 98 12 128 -4z m-663 -390 c39 -8 135 -22 215
-31 82 -8 159 -22 176 -31 80 -40 69 -175 -18 -220 -51 -26 -159 -29 -248 -6
-106 28 -136 12 -57 -30 37 -20 56 -23 157 -23 117 1 154 10 203 53 26 23 32
8 32 -77 0 -69 -3 -81 -27 -114 -41 -53 -32 -81 11 -38 52 52 68 146 41 247
-7 28 -10 62 -7 77 l7 25 50 -21 c49 -20 51 -20 106 -3 31 10 59 15 62 11 12
-12 4 -114 -13 -172 -20 -69 -82 -138 -165 -182 -80 -43 -80 -68 -1 -40 42 15
48 6 28 -37 -26 -54 -89 -79 -197 -78 -49 0 -96 6 -110 13 -31 16 -70 52 -70
63 0 4 32 8 70 8 39 0 70 4 70 9 0 4 -34 14 -75 20 -41 7 -96 24 -122 38 -83
43 -187 130 -228 188 -41 60 -75 167 -75 241 0 66 43 117 105 123 6 1 42 -6
80 -13z"/>
</g>
</svg>
