<?xml version="1.0" standalone="no"?>
<!DOCTYPE svg PUBLIC "-//W3C//DTD SVG 20010904//EN"
 "http://www.w3.org/TR/2001/REC-SVG-20010904/DTD/svg10.dtd">
<svg version="1.0" xmlns="http://www.w3.org/2000/svg"
 width="512.000000pt" height="214.000000pt" viewBox="0 0 512.000000 214.000000"
 preserveAspectRatio="xMidYMid meet">

<g transform="translate(0.000000,214.000000) scale(0.100000,-0.100000)"
fill="#000000" stroke="none">
<path d="M2090 2075 l-44 -45 47 -48 47 -47 47 47 47 48 -44 45 c-24 25 -47
45 -50 45 -3 0 -26 -20 -50 -45z"/>
<path d="M2330 2075 l-44 -45 47 -48 47 -47 47 47 47 48 -44 45 c-24 25 -47
45 -50 45 -3 0 -26 -20 -50 -45z"/>
<path d="M579 1906 l51 -64 0 -284 0 -285 -127 -53 c-71 -29 -132 -57 -138
-61 -14 -13 654 -11 715 2 102 22 156 122 130 241 -12 59 -42 113 -68 123 -16
6 -16 7 1 16 34 19 57 84 57 158 0 38 -5 82 -11 98 -14 39 -67 91 -103 103
-25 8 -509 70 -547 70 -6 0 12 -29 40 -64z m360 -116 c24 0 42 -9 67 -34 36
-36 41 -59 23 -100 -16 -34 -55 -48 -130 -44 l-64 3 -3 94 -3 94 38 -7 c21 -3
53 -6 72 -6z m50 -331 c37 -13 51 -35 51 -83 0 -64 -49 -91 -155 -84 l-50 3
-3 88 -3 87 64 0 c35 0 78 -5 96 -11z"/>
<path d="M4175 1945 c-5 -2 -56 -9 -112 -15 l-103 -12 0 -378 0 -377 143 -6
c78 -4 185 -7 238 -7 l96 0 66 94 c37 52 67 96 67 99 0 3 -35 -5 -77 -19 -65
-20 -99 -24 -205 -24 l-128 0 0 276 0 276 41 49 41 49 -29 -1 c-15 0 -32 -2
-38 -4z"/>
<path d="M3635 1894 c-202 -15 -271 -31 -314 -75 -39 -38 -51 -83 -51 -186 l0
-83 -47 0 -47 0 47 -48 47 -48 0 -99 0 -99 -47 -48 -47 -48 142 0 142 0 0 135
0 135 85 0 85 0 0 -135 0 -135 142 0 142 0 -52 53 -52 53 0 100 0 100 50 49
c28 27 50 53 50 57 0 4 -20 8 -45 8 l-45 0 0 128 c0 118 2 130 21 148 11 10
25 27 30 36 11 21 23 21 -236 2z m-5 -239 l0 -95 -85 0 -85 0 0 64 c0 97 25
121 128 125 l42 1 0 -95z"/>
<path d="M1270 1885 c0 -4 14 -23 30 -42 30 -34 30 -34 30 -158 l0 -125 -35 0
c-19 0 -35 -3 -35 -6 0 -3 16 -24 35 -47 l35 -41 0 -105 0 -105 -47 -48 -47
-48 142 0 142 0 0 141 0 141 71 -4 c102 -6 109 -16 109 -164 l0 -114 137 0
137 0 -42 43 -42 43 0 104 c0 87 -3 111 -20 138 -11 17 -27 32 -37 32 -14 0
-12 5 9 28 85 89 52 267 -56 301 -63 21 -516 52 -516 36z m394 -149 c98 -41
80 -151 -26 -163 -26 -3 -63 -2 -82 1 l-36 7 0 84 0 85 55 0 c31 0 71 -6 89
-14z"/>
<path d="M1920 1857 c0 -4 13 -21 29 -39 l29 -34 4 -256 c3 -294 3 -292 94
-338 48 -24 55 -25 299 -28 l250 -3 -42 43 -43 44 0 302 0 302 -131 0 -131 0
41 -49 41 -49 0 -236 0 -236 -60 0 c-52 0 -64 4 -92 29 l-33 29 -3 256 -3 256
-72 0 c-40 0 -96 3 -124 6 -29 4 -53 4 -53 1z"/>
<path d="M2818 1853 l-188 -3 0 -115 c0 -63 2 -115 4 -115 2 0 21 23 42 50 37
49 39 50 91 50 l53 0 0 -232 0 -232 -47 -48 -47 -48 189 0 190 1 -53 47 -52
47 2 235 3 235 47 3 c46 3 48 2 85 -47 21 -27 41 -50 46 -50 4 -1 7 51 7 114
l0 115 -92 -2 c-51 -2 -177 -4 -280 -5z"/>
<path d="M1832 976 c-67 -22 -118 -63 -136 -107 -13 -32 -16 -82 -16 -257 0
-236 7 -280 49 -323 39 -39 97 -51 238 -51 104 0 129 3 165 21 l42 20 64 -57
c114 -102 102 -117 102 137 l0 221 -157 0 -157 0 32 -33 c28 -29 32 -39 32
-90 0 -75 -20 -97 -89 -97 -97 0 -115 48 -105 285 8 195 18 215 107 215 38 0
49 -5 71 -31 14 -17 26 -41 26 -55 0 -24 0 -24 111 -24 l111 0 -6 48 c-14 99
-44 146 -111 173 -46 19 -320 22 -373 5z"/>
<path d="M3628 828 l-3 -163 -123 158 -124 157 -131 0 -131 0 47 -48 47 -48 0
-281 0 -282 -51 -43 -51 -43 203 -11 c112 -6 206 -9 208 -7 3 2 -16 25 -42 51
l-48 48 3 149 3 149 205 -257 205 -256 3 398 2 399 45 37 c25 20 45 41 45 46
0 5 -66 9 -155 9 l-155 0 -2 -162z"/>
<path d="M359 925 l51 -54 -2 -323 -3 -323 -182 -84 c-101 -47 -181 -86 -180
-88 2 -1 41 4 88 12 126 22 427 62 571 76 125 13 128 13 168 -10 l40 -22 0
198 c-1 222 1 221 -65 93 -50 -98 -50 -98 -137 -105 l-78 -7 0 346 0 346 -161
0 -162 0 52 -55z"/>
<path d="M993 932 l47 -48 0 -121 0 -120 -50 -7 -51 -7 51 -58 50 -58 0 -123
0 -124 -42 -43 c-23 -23 -40 -45 -37 -47 2 -3 144 5 314 17 l310 22 3 88 c1
48 1 125 0 170 l-3 82 -52 -101 -52 -101 -77 -6 c-42 -4 -92 -7 -111 -7 l-33
0 0 90 0 90 95 0 95 0 0 77 0 76 -100 -7 -100 -6 0 90 0 90 109 0 c86 0 111
-3 121 -16 8 -8 22 -20 32 -25 17 -9 18 -4 18 86 l0 95 -292 0 -292 0 47 -48z"/>
<path d="M2458 932 l52 -47 0 -106 c0 -118 0 -119 -75 -119 l-29 0 52 -53 52
-53 0 -113 0 -113 -47 -42 -47 -43 314 -5 c173 -3 316 -4 318 -3 1 1 1 74 0
161 l-3 159 -48 -87 -48 -88 -115 0 -114 0 0 80 0 80 95 0 95 0 0 70 0 70 -95
0 -95 0 0 80 0 80 107 0 c98 0 109 -2 140 -26 l33 -25 0 95 0 96 -297 0 -298
-1 53 -47z"/>
<path d="M4010 631 l0 -350 -50 -42 c-28 -23 -47 -46 -43 -49 5 -4 80 -12 168
-18 264 -20 712 -77 940 -121 27 -5 51 -8 52 -7 1 1 -100 46 -226 100 l-228
98 14 40 c11 32 12 92 7 298 -8 295 -11 308 -92 365 l-44 30 -249 3 -249 3 0
-350z m365 185 c47 -20 55 -57 55 -269 l0 -179 -29 -29 c-25 -25 -37 -29 -84
-29 -94 0 -87 -21 -87 266 l0 254 55 0 c31 0 71 -6 90 -14z"/>
</g>
</svg>
