<?xml version="1.0" standalone="no"?>
<!DOCTYPE svg PUBLIC "-//W3C//DTD SVG 20010904//EN"
 "http://www.w3.org/TR/2001/REC-SVG-20010904/DTD/svg10.dtd">
<svg version="1.0" xmlns="http://www.w3.org/2000/svg"
 width="800.000000pt" height="800.000000pt" viewBox="0 0 800.000000 800.000000"
 preserveAspectRatio="xMidYMid meet">

<g transform="translate(0.000000,800.000000) scale(0.100000,-0.100000)"
fill="#000000" stroke="none">
<path d="M3590 7065 c-242 -41 -474 -139 -742 -317 -338 -223 -478 -358 -586
-567 -108 -209 -130 -355 -86 -567 l15 -71 45 5 c61 7 79 -12 100 -104 15 -68
44 -124 64 -124 4 0 14 24 21 53 22 95 48 158 88 217 22 32 61 100 87 152 67
134 110 192 211 288 113 108 228 185 420 281 164 83 326 141 462 165 111 19
375 19 621 -1 499 -40 481 -37 593 -122 172 -132 347 -358 409 -529 32 -90 35
-204 8 -279 -12 -33 -32 -98 -45 -145 -24 -86 -95 -258 -132 -317 -36 -60
-187 -225 -298 -326 -144 -132 -326 -267 -489 -362 -72 -43 -172 -105 -223
-137 -81 -53 -103 -62 -185 -78 -51 -10 -113 -26 -138 -36 -73 -29 -185 -105
-153 -104 4 0 71 20 148 45 76 24 140 43 142 41 3 -2 -451 -287 -469 -295 -6
-2 -21 3 -35 10 -25 13 -28 11 -117 -82 -96 -99 -154 -194 -209 -339 -62 -165
-95 -398 -78 -543 17 -142 48 -223 131 -337 29 -40 58 -97 76 -150 16 -46 39
-96 51 -110 19 -22 29 -25 90 -25 80 0 85 10 30 53 l-37 30 26 31 c15 18 25
33 23 35 -2 1 -29 15 -60 29 -69 33 -87 65 -91 163 -3 64 -1 69 18 72 30 4 77
-39 113 -103 31 -55 55 -75 89 -75 17 0 14 10 -26 86 -50 98 -63 177 -43 261
52 212 172 483 292 664 114 170 268 305 425 374 41 17 83 40 94 50 46 41 419
253 625 355 242 119 354 188 491 302 210 175 348 375 413 598 91 312 98 628
19 870 -72 224 -252 483 -364 526 -63 24 -70 15 -29 -39 54 -71 45 -82 -40
-45 -177 76 -390 153 -500 180 -129 31 -254 86 -414 180 l-93 56 35 11 c25 9
46 9 69 3 18 -6 197 -75 398 -155 336 -134 485 -186 497 -173 10 9 -50 39
-238 117 -720 299 -1194 409 -1519 354z m-105 -124 c-6 -5 -98 -55 -206 -110
-177 -91 -239 -116 -239 -93 0 14 354 196 395 203 61 10 60 10 50 0z m750 -15
c30 -13 101 -93 91 -103 -2 -2 -57 20 -122 49 -109 48 -116 53 -89 59 51 11
84 10 120 -5z m-506 -31 c-4 -4 -104 -43 -513 -201 -37 -14 -38 -14 -26 1 29
34 135 109 199 140 58 28 104 44 176 59 28 5 169 7 164 1z m426 -129 c69 -19
166 -55 179 -68 6 -4 -92 -8 -216 -8 -212 0 -240 -2 -431 -34 -352 -60 -388
-80 -776 -457 -152 -147 -278 -266 -280 -263 -3 2 15 42 38 89 194 381 583
666 1026 751 97 18 379 12 460 -10z m-1152 -128 c-10 -18 -86 -93 -168 -168
-247 -224 -385 -400 -503 -640 l-57 -115 -3 46 c-4 69 27 146 112 273 147 220
330 426 538 605 87 74 93 77 96 55 2 -14 -5 -39 -15 -56z m1705 -4 c154 -43
273 -102 359 -176 32 -28 59 -54 61 -59 8 -19 -214 54 -303 100 -62 32 -204
150 -182 151 5 0 34 -7 65 -16z m-464 -10 c49 -8 118 -26 155 -40 75 -29 105
-50 53 -39 -18 4 -162 7 -320 8 -222 0 -313 -3 -403 -16 -150 -22 -294 -60
-393 -103 -44 -19 -81 -34 -83 -34 -13 0 16 25 69 62 113 76 277 134 463 163
116 19 352 18 459 -1z m-1529 -94 c-5 -8 -148 -180 -334 -402 -36 -43 -67 -75
-69 -73 -8 7 27 97 64 164 44 79 180 218 273 279 65 43 76 49 66 32z m2631
-95 c153 -74 202 -104 251 -149 129 -120 194 -329 194 -626 0 -196 -36 -343
-124 -514 -39 -76 -129 -187 -141 -175 -4 3 19 75 50 160 71 196 101 323 110
457 6 103 5 110 -20 160 -14 29 -28 52 -31 52 -3 0 -2 -39 1 -87 15 -207 -62
-500 -174 -668 -39 -59 -104 -136 -109 -131 -3 3 13 44 35 93 66 144 79 237
63 458 -15 196 -30 548 -24 557 2 5 22 -1 43 -12 57 -29 62 -25 39 27 -35 82
-109 174 -266 331 -84 85 -150 158 -147 164 10 16 51 1 250 -97z m-218 -145
c63 -32 150 -116 189 -183 19 -31 20 -37 7 -48 -15 -12 -8 -17 -229 194 -80
77 -70 88 33 37z m-2574 -262 c-10 -53 -48 -129 -98 -195 -61 -80 -69 -85 -61
-36 10 57 56 151 104 211 48 60 63 66 55 20z m2835 -761 c8 -11 6 -34 -9 -93
-39 -154 -115 -271 -265 -412 -76 -71 -117 -101 -102 -74 3 4 80 139 172 300
91 160 172 292 180 292 7 0 18 -6 24 -13z m-532 -668 c-31 -68 -78 -116 -142
-144 -52 -23 -153 -50 -160 -43 -2 2 69 60 158 129 89 70 163 123 165 119 2
-4 -8 -32 -21 -61z m-27 -222 c0 -13 -68 -57 -89 -57 -26 0 -8 28 32 47 50 26
57 27 57 10z m-514 -288 c4 -7 -4 -20 -17 -30 -54 -41 -360 -231 -365 -226 -8
7 116 129 168 165 54 37 178 102 195 102 6 0 15 -5 19 -11z m-632 -241 c-94
-99 -103 -109 -158 -183 -107 -141 -143 -204 -265 -465 -10 -21 -11 -13 -7 50
6 103 29 189 83 299 38 79 59 108 131 181 82 82 224 180 261 180 8 0 -13 -28
-45 -62z m-146 -526 c9 -6 3 -29 -27 -93 -46 -97 -50 -102 -67 -88 -10 8 -7
21 12 64 13 30 30 70 38 90 15 36 22 40 44 27z m-399 -263 c-7 -74 -15 -138
-19 -142 -12 -13 -33 91 -27 131 6 42 47 156 53 149 3 -3 -1 -65 -7 -138z
m201 -219 c0 -54 -2 -60 -21 -60 -18 0 -20 4 -14 48 8 61 12 72 25 72 6 0 10
-25 10 -60z"/>
<path d="M3568 4008 c-32 -18 -68 -71 -57 -82 2 -2 31 20 64 50 62 55 58 70
-7 32z"/>
<path d="M3535 1648 c-94 -50 -193 -157 -249 -267 -25 -51 -46 -105 -46 -120
0 -33 80 -140 160 -214 256 -237 627 -124 699 213 6 30 32 88 56 130 49 80 55
117 27 143 -26 23 -138 60 -324 107 -195 50 -242 51 -323 8z m494 -170 c22
-39 8 -44 -44 -17 -49 26 -55 35 -27 42 34 10 57 2 71 -25z m-160 -85 c28 -21
51 -43 51 -50 0 -35 -132 -43 -200 -12 l-45 20 42 40 c55 51 84 51 152 2z m81
-158 c0 -1 -32 -25 -71 -51 -69 -47 -74 -49 -143 -49 -57 0 -83 6 -130 28
l-59 27 21 23 c20 21 29 22 201 24 100 1 181 0 181 -2z m-225 -155 l200 -1
-34 -29 c-106 -91 -232 -93 -368 -7 -48 30 -55 45 -20 41 12 -1 112 -3 222 -4z"/>
</g>
</svg>
