<?xml version="1.0" standalone="no"?>
<!DOCTYPE svg PUBLIC "-//W3C//DTD SVG 20010904//EN"
 "http://www.w3.org/TR/2001/REC-SVG-20010904/DTD/svg10.dtd">
<svg version="1.0" xmlns="http://www.w3.org/2000/svg"
 width="679.000000pt" height="500.000000pt" viewBox="0 0 679.000000 500.000000"
 preserveAspectRatio="xMidYMid meet">
<metadata>
Created by potrace 1.16, written by Peter Selinger 2001-2019
</metadata>
<g transform="translate(0.000000,500.000000) scale(0.100000,-0.100000)"
fill="#000000" stroke="none">
<path d="M1568 4453 c-9 -10 -21 -42 -27 -72 -10 -47 -8 -71 10 -165 11 -61
22 -115 22 -121 1 -6 -19 -9 -49 -7 -46 3 -54 1 -83 -29 -18 -18 -39 -43 -48
-56 -12 -17 -24 -23 -54 -23 -21 0 -55 -8 -75 -17 -35 -17 -36 -17 -50 2 -7
11 -18 25 -23 31 -5 7 -30 52 -55 100 -53 104 -97 144 -157 144 -87 0 -80 -98
22 -309 28 -58 78 -162 111 -231 33 -69 66 -136 74 -150 7 -14 23 -44 34 -67
21 -43 66 -87 100 -98 11 -3 20 -10 20 -15 0 -4 19 -32 43 -62 23 -29 57 -87
76 -128 18 -41 39 -86 47 -100 22 -38 62 -127 73 -163 5 -18 24 -68 41 -112
45 -113 66 -184 95 -310 14 -60 33 -133 44 -160 21 -56 41 -178 41 -258 0 -66
39 -226 71 -292 21 -44 24 -63 23 -155 -1 -58 -9 -139 -18 -181 -14 -69 -26
-154 -81 -599 -9 -69 -18 -168 -20 -221 -2 -53 -11 -120 -19 -150 -11 -36 -17
-105 -18 -211 -3 -139 -1 -159 15 -175 14 -14 21 -15 37 -6 16 11 21 8 40 -21
40 -66 40 -66 345 -66 l275 0 -6 43 c-3 23 -9 53 -14 67 -5 14 -15 57 -24 95
-30 142 -30 153 8 133 28 -15 -56 85 -95 113 -38 27 -37 52 6 85 34 26 35 28
35 100 0 72 5 85 26 64 7 -7 23 -3 49 10 l40 20 17 -22 c9 -13 21 -39 26 -58
9 -32 10 -32 11 -8 1 15 6 30 11 33 7 4 2 15 -12 29 -13 12 -28 30 -33 40 -10
17 -12 17 -47 0 -31 -14 -40 -15 -53 -4 -32 27 -45 65 -34 103 11 40 54 97 73
97 7 0 23 12 37 26 20 21 155 94 175 94 4 0 4 -12 1 -26 -4 -21 2 -30 37 -52
37 -25 51 -27 156 -30 63 -2 134 -4 158 -5 70 -3 159 57 137 93 -3 5 -23 14
-43 20 -35 10 -92 51 -92 66 0 10 148 -4 231 -21 107 -23 238 -95 265 -146 20
-39 18 -119 -4 -145 -9 -12 -30 -29 -47 -37 -16 -8 -43 -27 -58 -41 -34 -31
-67 -33 -93 -5 -38 42 -48 41 -99 -6 -56 -54 -81 -56 -130 -13 -20 17 -40 27
-43 22 -4 -5 -29 -24 -55 -42 -53 -36 -51 -36 -107 15 l-25 22 -50 -24 c-64
-31 -73 -31 -117 5 l-37 30 -37 -25 c-41 -28 -41 -30 4 -14 28 10 34 8 66 -22
26 -23 36 -41 36 -61 0 -17 4 -27 10 -23 5 3 10 20 10 36 0 23 6 32 28 40 15
6 35 15 44 20 29 15 43 11 72 -20 26 -27 28 -34 22 -83 -6 -49 -6 -52 9 -33 8
11 21 37 27 58 8 25 25 48 52 67 22 17 43 30 46 30 3 0 27 -13 53 -29 43 -28
45 -32 37 -60 -13 -45 3 -38 27 12 12 24 39 55 65 74 l45 32 40 -39 40 -39 51
49 c29 27 54 45 58 39 6 -10 -31 -123 -47 -145 -5 -6 -23 -9 -41 -6 -32 4 -32
3 11 -19 30 -15 48 -33 58 -57 17 -41 12 -49 -61 -86 -31 -15 -61 -35 -67 -43
-7 -8 -30 -23 -50 -34 -37 -19 -64 -44 -35 -33 36 14 32 -11 -15 -81 -27 -41
-49 -79 -49 -84 0 -5 -11 -23 -25 -39 -20 -24 -55 -99 -55 -119 0 -8 568 5
628 14 34 6 74 19 88 29 58 41 67 43 168 40 55 -2 102 -8 103 -13 2 -6 9 -18
16 -27 18 -24 122 -32 153 -11 21 13 25 13 52 -10 28 -23 38 -25 137 -25 l106
0 54 51 c43 41 58 49 69 40 10 -9 16 -8 25 2 17 21 21 57 31 257 8 177 19 273
33 287 4 3 7 -10 7 -30 0 -20 5 -39 10 -42 6 -3 10 -2 10 4 0 6 12 8 29 5 25
-5 29 -3 35 26 3 18 6 63 6 101 0 108 17 80 22 -36 4 -94 16 -140 33 -123 6 6
23 98 54 293 18 116 37 200 87 385 38 141 53 264 59 470 1 25 2 55 3 67 1 12
26 57 55 100 75 109 139 237 284 568 19 44 41 94 47 112 7 18 19 40 27 50 9
10 26 45 39 78 13 33 32 72 42 87 10 14 18 30 18 35 0 6 9 18 20 28 11 10 31
42 45 71 14 29 38 62 55 74 17 12 37 34 44 49 8 15 37 42 65 61 28 19 51 38
51 42 0 3 19 30 43 60 51 63 90 129 106 180 7 20 21 48 31 61 10 13 37 59 60
102 22 44 49 88 59 99 28 32 39 58 46 112 6 41 3 53 -15 77 -30 38 -75 37
-128 -5 -44 -35 -92 -94 -92 -113 0 -6 -13 -24 -30 -40 -16 -15 -34 -43 -41
-62 -13 -40 -18 -41 -49 -8 -16 17 -39 27 -71 31 -32 4 -50 12 -54 23 -3 9
-23 36 -45 60 -38 42 -42 43 -85 39 -25 -3 -45 -2 -45 3 0 5 11 52 25 105 32
123 33 211 3 249 -19 24 -26 26 -61 21 -54 -9 -94 -31 -114 -64 -9 -15 -25
-36 -34 -47 -25 -29 -75 -152 -89 -222 -18 -87 -42 -132 -108 -200 -92 -94
-91 -91 -96 -243 -4 -141 -13 -174 -67 -235 -10 -11 -26 -44 -38 -73 -22 -60
-47 -102 -60 -102 -5 0 -11 22 -15 49 -15 115 -71 237 -185 406 -11 17 -37 55
-58 85 -35 52 -162 188 -335 359 -95 94 -142 134 -202 167 -25 14 -51 34 -56
44 -5 9 -32 32 -60 50 -42 27 -67 35 -153 45 -56 8 -117 19 -134 25 -56 20
-212 -2 -295 -43 l-55 -27 -51 25 c-59 29 -83 31 -115 11 -12 -8 -42 -17 -67
-21 -25 -4 -72 -21 -105 -37 -93 -45 -212 -111 -232 -129 -10 -9 -31 -23 -48
-31 -165 -83 -172 -88 -293 -208 -74 -73 -93 -100 -141 -195 -30 -60 -60 -132
-67 -160 -10 -43 -46 -154 -75 -232 -14 -38 -36 -27 -48 24 -7 25 -21 65 -32
87 -29 59 -86 233 -93 287 -4 25 -2 95 4 156 11 120 0 172 -41 201 -11 7 -39
44 -64 81 -36 56 -47 86 -64 167 -30 150 -63 236 -111 294 -23 28 -50 55 -60
60 -30 16 -85 12 -102 -7z m106 -36 c19 -14 56 -99 56 -128 0 -9 15 -46 34
-81 33 -64 34 -68 32 -177 -1 -61 0 -115 4 -121 4 -6 23 -11 44 -12 35 -1 64
-18 31 -18 -15 0 -23 -3 -82 -34 -17 -9 -42 -16 -56 -16 -21 0 -26 7 -36 48
-21 81 -51 173 -67 203 -48 94 -82 300 -54 334 15 19 70 20 94 2z m-647 -222
c31 -22 86 -124 121 -225 16 -47 50 -125 76 -174 25 -48 46 -94 46 -100 0 -6
16 -36 35 -66 19 -29 36 -57 37 -62 4 -11 126 -41 142 -35 8 3 17 19 21 36 4
17 10 31 14 31 4 0 13 10 19 23 9 19 11 15 11 -30 1 -70 20 -88 97 -97 33 -3
74 -4 92 0 34 7 72 45 72 73 0 29 22 41 72 41 46 0 48 -1 48 -27 0 -24 -11
-34 -76 -72 -58 -34 -74 -49 -71 -62 7 -24 -6 -33 -83 -59 -36 -11 -83 -29
-105 -39 -22 -10 -61 -21 -86 -25 -45 -7 -47 -6 -59 24 -7 17 -21 35 -30 40
-10 5 -37 27 -60 47 -23 21 -55 45 -72 53 -29 14 -44 37 -82 120 -9 19 -20 42
-25 50 -22 34 -71 148 -71 163 0 9 -13 31 -28 49 -16 18 -36 53 -46 78 -10 25
-33 73 -52 108 -38 70 -45 125 -16 141 24 14 34 13 59 -4z m4541 -157 c4 -47
-42 -184 -94 -281 -9 -15 -22 -67 -31 -115 -23 -132 -33 -156 -67 -160 -18 -2
-36 4 -50 16 -11 11 -39 28 -61 38 l-40 19 40 5 40 5 6 85 c6 94 29 181 65
250 13 25 24 49 24 54 0 14 69 114 82 120 7 3 29 4 48 3 33 -2 35 -4 38 -39z
m-4007 -44 c16 -20 36 -153 31 -201 -3 -27 -9 -33 -28 -33 -13 0 -28 9 -34 20
-6 11 -16 20 -23 20 -16 0 -77 119 -77 150 0 13 7 32 17 42 21 24 95 25 114 2z
m-172 -96 c18 -18 37 -42 41 -54 10 -27 21 -190 14 -208 -6 -16 -43 14 -63 52
-6 12 -20 22 -30 22 -22 0 -76 82 -84 128 -17 87 58 123 122 60z m564 -98 c3
-10 0 -21 -7 -23 -8 -3 -7 -9 3 -20 8 -10 9 -17 3 -17 -6 0 -12 -12 -14 -27
-3 -26 -6 -28 -43 -25 -22 2 -41 5 -42 6 -2 1 -5 17 -7 34 -3 31 8 45 16 20 3
-7 7 -8 10 -3 3 6 3 18 -1 28 -6 17 -7 17 -26 0 -11 -10 -21 -33 -21 -51 -2
-25 -13 -42 -48 -75 -25 -23 -50 -54 -55 -69 -9 -25 -16 -28 -54 -28 -24 0
-48 5 -55 12 -16 16 -15 116 1 148 17 34 90 72 157 81 30 4 73 12 95 17 64 15
82 14 88 -8z m4215 -16 c31 -22 27 -54 -13 -110 -19 -27 -45 -71 -59 -99 -13
-27 -33 -59 -45 -69 -12 -11 -27 -31 -34 -45 -33 -63 -62 -108 -90 -140 -16
-19 -39 -55 -50 -80 -33 -76 -74 -125 -131 -156 -29 -16 -64 -44 -77 -64 -13
-19 -40 -54 -59 -77 -58 -70 -98 -128 -109 -156 -9 -24 -13 -26 -40 -18 -17 5
-33 5 -36 0 -8 -13 21 -31 40 -24 10 4 16 3 14 -2 -32 -77 -46 -104 -55 -104
-6 0 -18 -10 -26 -22 -11 -16 -20 -20 -39 -15 -64 18 -94 80 -53 113 18 13 17
14 -11 8 -47 -10 -68 -36 -60 -73 3 -17 16 -39 29 -48 27 -22 66 -77 66 -93 0
-9 -15 -10 -52 -5 -59 8 -83 26 -130 94 -34 51 -33 94 5 128 36 33 61 42 139
50 71 6 72 7 43 19 -44 19 -99 17 -127 -5 -13 -11 -43 -24 -66 -31 -82 -21
-100 -65 -62 -149 l20 -44 -42 7 c-23 4 -57 18 -75 32 -27 20 -36 23 -54 14
-26 -15 -15 -30 55 -69 47 -27 229 -81 274 -81 30 0 44 -23 28 -45 -11 -15
-23 -17 -92 -13 -80 6 -149 30 -236 85 -42 26 -56 29 -40 11 5 -7 16 -33 23
-58 7 -25 16 -49 19 -55 4 -5 12 -26 19 -45 6 -19 22 -47 36 -62 46 -50 115
-138 115 -147 0 -5 -9 -11 -21 -14 -15 -4 -19 -12 -17 -33 6 -56 -27 -39 -97
48 -67 84 -137 141 -189 154 l-29 7 27 -39 c29 -43 33 -64 11 -64 -22 0 -48
60 -46 108 1 41 34 156 51 177 4 6 24 55 44 110 21 55 44 107 51 115 8 8 34
53 58 100 24 47 61 109 81 139 20 29 36 59 36 66 0 8 16 34 35 59 19 26 35 50
35 54 0 4 9 18 20 32 23 29 26 50 6 50 -15 0 -26 21 -26 51 0 15 7 19 33 19
47 0 80 -21 89 -56 6 -23 19 -36 54 -53 41 -21 56 -23 121 -17 70 5 74 5 82
-17 7 -17 10 -18 14 -7 12 36 14 60 6 66 -5 3 -8 24 -8 47 l1 42 12 -48 c14
-61 31 -71 109 -62 69 8 92 23 113 75 8 19 23 44 33 55 27 29 78 135 86 178 4
20 35 85 69 143 49 86 71 114 110 141 56 38 55 38 84 17z m-2423 -146 c72 -28
164 -118 201 -197 23 -50 55 -196 72 -331 l9 -65 8 39 c7 37 5 55 -23 186 -6
25 -15 80 -22 124 -10 67 -10 81 3 93 13 13 20 10 55 -26 66 -68 131 -182 153
-269 11 -42 29 -110 41 -150 21 -77 37 -215 30 -264 -5 -32 -22 -38 -22 -8 0
11 -4 20 -8 20 -9 0 -10 -259 -1 -275 22 -38 -1 -277 -42 -445 -23 -92 -115
-317 -160 -390 -25 -40 -39 -85 -79 -237 -8 -33 -16 -43 -31 -43 -29 0 -189
-44 -274 -75 -187 -69 -219 -77 -325 -82 -77 -4 -125 -1 -180 12 -41 9 -151
27 -245 40 -231 32 -399 81 -445 130 -13 14 -29 25 -35 25 -7 0 -41 27 -76 61
-68 64 -127 98 -170 99 -21 0 -28 6 -33 28 -3 15 -9 149 -12 298 -6 231 -5
278 9 325 9 30 21 90 27 134 7 44 23 111 37 150 13 38 30 90 38 115 24 81 56
165 70 180 7 8 31 59 54 114 22 54 54 119 71 144 16 25 30 51 30 57 0 7 22 42
49 78 27 36 68 94 91 127 23 34 47 59 53 57 7 -2 21 -18 32 -37 11 -18 39 -53
62 -76 23 -24 44 -52 47 -62 9 -26 105 -87 117 -75 14 14 -6 62 -41 98 -15 17
-31 40 -34 51 -7 24 7 160 24 241 12 55 26 67 66 57 22 -6 23 -8 11 -23 -18
-20 -31 -61 -20 -61 5 0 19 18 32 40 12 22 31 44 41 50 48 26 125 -5 132 -52
2 -11 11 -26 21 -32 15 -9 20 -7 30 9 7 11 14 29 18 40 4 17 10 12 33 -27 15
-27 34 -48 41 -48 7 0 25 20 39 45 31 52 46 57 46 17 0 -16 6 -36 13 -45 11
-16 14 -16 35 -2 12 9 22 21 22 27 0 7 15 33 33 59 36 53 48 57 157 53 37 -2
90 -13 125 -26z m1927 -5 c29 -26 23 -74 -18 -134 -34 -51 -56 -69 -79 -64 -5
1 -7 0 -3 -2 15 -9 -6 -33 -28 -33 -21 0 -24 5 -24 38 0 68 27 182 46 197 26
20 84 19 106 -2z m156 -99 c34 -24 31 -85 -8 -126 -17 -17 -33 -41 -36 -54 -4
-14 -16 -24 -35 -28 -16 -3 -43 -20 -60 -37 -17 -17 -33 -29 -35 -26 -6 6 13
143 27 199 18 70 95 109 147 72z m-577 -39 c24 -9 50 -22 59 -29 8 -7 31 -16
52 -20 20 -4 38 -13 41 -20 3 -8 16 -16 28 -18 12 -2 24 -8 26 -15 3 -7 -3 -9
-18 -6 -17 5 -20 2 -16 -13 22 -71 21 -72 -20 -80 -21 -4 -42 -9 -46 -11 -13
-8 13 -32 29 -26 16 6 37 -38 22 -48 -18 -11 -60 4 -68 25 -21 48 -70 86 -113
86 -21 0 -41 12 -69 40 -35 35 -40 44 -34 72 7 36 22 57 51 68 28 12 27 12 76
-5z m-3208 -384 l29 -100 -35 -69 c-19 -37 -47 -86 -61 -107 -14 -21 -26 -42
-26 -47 0 -15 -68 -156 -79 -162 -6 -4 -22 -29 -37 -57 -30 -55 -43 -58 -56
-13 -5 16 -17 47 -27 69 -27 58 -40 98 -68 205 -14 52 -31 102 -38 110 -7 8
-18 35 -25 59 -12 46 -5 61 31 61 27 0 133 39 161 60 15 11 44 24 66 28 21 5
56 21 78 36 21 14 43 26 49 26 5 0 23 -45 38 -99z m3062 -711 c79 -16 82 -18
99 -70 21 -63 21 -63 -9 -56 -24 6 -25 5 -18 -39 5 -37 3 -46 -13 -52 -12 -4
-21 -1 -28 12 -6 10 -25 35 -42 54 -43 50 -97 149 -89 162 4 6 17 8 29 5 11
-4 44 -11 71 -16z m-2127 -1292 c7 -6 11 -21 8 -32 -5 -19 0 -21 45 -23 74 -2
106 -38 54 -61 -39 -18 -121 -25 -154 -14 -17 6 -52 7 -83 3 -69 -9 -146 7
-165 35 -12 18 -11 24 8 48 11 14 34 33 50 42 63 32 199 33 237 2z"/>
<path d="M3843 3259 c-18 -12 -33 -24 -33 -28 0 -3 -33 -24 -74 -46 -55 -29
-79 -48 -90 -73 -9 -18 -16 -35 -16 -38 0 -15 116 26 130 46 3 4 19 14 35 23
43 22 113 88 120 115 5 18 2 22 -17 22 -13 0 -38 -10 -55 -21z"/>
<path d="M2672 3198 c-40 -25 -50 -48 -58 -138 -9 -91 -1 -115 46 -145 51 -32
64 -31 110 5 42 34 60 87 60 180 0 68 -16 98 -59 110 -50 14 -61 13 -99 -12z"/>
<path d="M3742 3062 c-46 -36 -69 -199 -37 -262 26 -51 82 -65 130 -34 45 30
86 177 65 239 -22 68 -105 98 -158 57z"/>
<path d="M3060 2673 c-60 -10 -179 -47 -220 -69 -101 -52 -200 -181 -230 -298
-41 -163 -49 -384 -18 -514 40 -170 157 -307 293 -343 22 -5 56 -17 75 -26 25
-12 66 -17 145 -17 97 -1 120 2 190 28 44 15 102 40 130 54 58 29 155 114 217
191 54 67 53 67 77 121 37 88 46 142 46 280 -1 118 -4 146 -28 221 -14 47 -39
103 -54 124 -40 55 -116 130 -160 158 -96 59 -351 109 -463 90z"/>
<path d="M3070 552 c-14 -9 -54 -44 -88 -77 -35 -33 -76 -68 -92 -78 -17 -11
-30 -22 -30 -26 0 -25 193 -40 263 -20 44 12 55 22 116 108 39 55 47 62 69 56
22 -5 24 -4 13 9 -35 42 -203 60 -251 28z"/>
<path d="M2393 509 c4 -13 7 -32 7 -42 0 -29 76 -103 118 -115 85 -26 252 -3
252 34 0 19 -76 76 -145 110 -49 24 -76 29 -149 32 l-89 4 6 -23z"/>
<path d="M2492 140 c-18 -123 -16 -140 10 -140 12 0 30 7 40 17 17 15 19 15
36 0 33 -30 42 -21 42 43 0 45 -3 58 -13 54 -7 -2 -31 1 -53 8 -36 12 -39 16
-44 58 -5 43 -6 40 -18 -40z"/>
</g>
</svg>
