<?xml version="1.0" standalone="no"?>
<!DOCTYPE svg PUBLIC "-//W3C//DTD SVG 20010904//EN"
 "http://www.w3.org/TR/2001/REC-SVG-20010904/DTD/svg10.dtd">
<svg version="1.0" xmlns="http://www.w3.org/2000/svg"
 width="1000.000000pt" height="1080.000000pt" viewBox="0 0 1000.000000 1080.000000"
 preserveAspectRatio="xMidYMid meet">

<g transform="translate(0.000000,1080.000000) scale(0.100000,-0.100000)"
fill="#000000" stroke="none">
<path d="M2493 8565 c-131 -28 -253 -119 -302 -225 l-26 -55 -1 -305 c-1 -194
-7 -370 -17 -485 -9 -99 -17 -234 -18 -300 0 -66 -5 -174 -10 -240 -6 -66 -14
-709 -18 -1430 -6 -1171 -9 -1332 -26 -1516 -17 -182 -18 -224 -7 -350 20
-235 66 -371 160 -471 26 -28 67 -60 92 -73 76 -38 215 -65 335 -65 60 0 176
-7 259 -16 291 -31 440 9 588 159 118 118 177 273 200 520 14 159 12 2002 -3
2277 -5 96 -12 464 -16 816 -5 546 -3 676 11 865 9 123 22 256 29 294 19 113
15 260 -11 325 -23 60 -97 156 -134 176 -166 89 -372 120 -618 93 -83 -9 -120
-8 -210 5 -128 19 -174 19 -257 1z m166 -227 c41 -68 178 -238 192 -238 9 0
22 6 28 14 15 18 9 30 -66 140 -29 43 -52 80 -51 81 2 1 88 -8 192 -21 105
-12 253 -27 330 -34 78 -6 151 -16 163 -22 28 -14 53 -76 53 -130 0 -23 -7
-83 -15 -132 -32 -195 -45 -506 -44 -1016 0 -272 5 -580 9 -685 13 -286 34
-1671 33 -2165 -1 -338 -5 -453 -16 -515 -29 -158 -85 -257 -181 -321 -94 -62
-125 -68 -371 -69 -121 0 -263 -4 -315 -9 -112 -10 -163 0 -233 47 -49 33 -81
83 -93 147 -7 34 -4 32 72 -49 43 -46 80 -78 82 -72 2 6 -14 31 -35 54 -21 23
-59 71 -84 107 -39 55 -47 75 -52 128 -4 34 -3 62 1 62 4 0 27 -31 52 -68 48
-72 228 -262 248 -262 25 0 9 27 -58 103 -78 87 -172 221 -218 312 -27 54 -29
66 -23 120 l6 60 73 -85 c198 -229 212 -241 226 -205 3 10 -12 35 -42 68 -26
28 -58 68 -71 87 -14 19 -48 60 -76 90 -28 30 -64 73 -78 96 -25 36 -26 46
-21 102 4 34 10 62 14 62 4 0 51 -51 103 -113 127 -149 191 -211 211 -204 25
10 19 25 -33 80 -27 29 -99 115 -160 191 l-111 139 0 69 c0 39 4 68 10 68 6 0
10 -3 10 -8 0 -7 47 -63 223 -269 61 -71 92 -88 103 -58 8 19 -9 45 -106 165
-168 209 -230 298 -230 330 0 16 3 30 8 29 4 0 46 -49 95 -107 161 -197 172
-208 191 -193 9 7 16 19 16 27 0 7 -50 75 -111 151 -61 76 -128 164 -150 197
l-39 58 0 111 0 111 51 -74 c69 -100 78 -111 175 -213 79 -83 87 -88 102 -73
15 15 15 19 -1 49 -10 17 -47 65 -83 106 -36 40 -105 134 -155 209 l-89 135 0
100 0 100 62 -89 c79 -115 245 -324 257 -324 17 0 41 31 34 43 -4 6 -54 78
-112 159 -59 81 -136 197 -173 259 -60 99 -68 118 -68 163 0 27 4 46 8 40 5
-5 56 -65 114 -134 129 -152 232 -255 247 -246 7 5 -19 44 -67 104 -113 140
-271 350 -288 384 -9 18 -14 49 -12 85 l3 55 33 -46 c18 -25 93 -108 167 -184
122 -125 135 -136 149 -121 15 14 10 23 -62 101 -129 141 -229 269 -262 336
-27 54 -31 72 -28 129 l3 65 62 -80 c34 -44 103 -122 152 -173 77 -81 91 -91
105 -80 9 8 16 18 16 23 0 5 -43 57 -96 116 -53 58 -130 153 -170 210 l-74
105 0 73 c0 41 2 74 4 74 1 0 55 -60 118 -132 63 -73 145 -164 181 -203 63
-67 66 -69 84 -52 23 22 18 31 -97 164 -124 143 -211 250 -253 313 -31 46 -37
63 -37 107 0 29 3 53 6 53 7 0 47 -45 211 -235 164 -190 198 -222 218 -205 21
17 18 30 -13 66 -179 204 -360 425 -391 475 -16 27 -21 50 -21 112 0 71 10 98
24 62 7 -20 183 -265 210 -293 25 -26 56 -21 56 9 0 10 -22 50 -50 88 -59 84
-142 212 -194 300 -35 61 -37 68 -35 145 1 45 3 84 6 88 2 4 40 -47 85 -115
45 -67 110 -159 145 -204 66 -85 93 -101 112 -64 8 15 4 28 -23 62 -72 96
-231 346 -273 430 -40 81 -43 94 -36 131 l8 42 44 -75 c68 -115 206 -323 224
-337 12 -10 21 -11 36 -2 12 6 21 13 21 17 0 3 -32 56 -72 117 -39 61 -107
181 -152 266 -44 85 -83 157 -87 160 -3 3 -3 43 2 90 4 47 8 96 8 110 1 18 25
-17 84 -120 99 -173 194 -327 206 -335 16 -9 41 6 41 25 0 10 -28 67 -61 127
-145 254 -187 331 -208 375 -12 25 -33 54 -46 62 -24 16 -25 21 -25 124 l0
107 19 -40 c21 -46 180 -322 234 -407 37 -57 52 -69 75 -60 23 8 12 37 -64
162 -41 69 -109 194 -151 278 -42 83 -82 152 -90 152 -15 0 -17 18 -4 38 5 9
23 -18 54 -82 77 -160 218 -357 252 -353 37 4 28 41 -30 123 -75 104 -118 178
-156 269 -17 41 -35 77 -40 81 -16 10 -9 23 20 38 28 15 29 15 34 -12 8 -38
84 -160 164 -266 80 -105 96 -118 119 -94 16 16 12 25 -64 140 -73 112 -152
244 -152 254 0 2 10 4 23 4 12 0 28 -10 36 -22z"/>
<path d="M4340 8391 c-117 -36 -230 -188 -275 -372 -28 -111 -30 -311 -6 -494
11 -88 28 -212 36 -275 26 -197 57 -843 65 -1345 4 -264 16 -651 25 -860 18
-403 16 -601 -11 -895 -21 -231 -21 -503 1 -605 22 -107 64 -194 120 -250 62
-63 121 -87 220 -93 193 -10 350 72 760 402 445 357 532 425 665 520 181 130
296 203 641 407 540 319 824 530 1105 820 227 235 297 413 225 574 -31 69
-273 269 -941 778 -546 416 -665 495 -1385 932 -530 321 -660 411 -825 570
-120 115 -175 156 -243 179 -49 17 -134 20 -177 7z m81 -205 c-4 -6 -27 -47
-50 -91 -23 -44 -49 -87 -57 -95 -13 -13 -14 -9 -8 40 7 59 42 130 75 154 24
16 55 11 40 -8z m65 -27 l22 -20 -71 -106 c-39 -58 -85 -136 -104 -172 l-33
-66 0 53 c0 44 7 65 39 120 22 37 54 100 72 140 17 39 36 72 42 72 6 0 21 -9
33 -21z m74 -183 c-63 -103 -110 -204 -110 -235 0 -42 25 -59 58 -40 31 17 42
49 18 49 -9 0 -16 2 -16 6 0 13 111 234 118 234 4 0 28 -20 52 -45 41 -41 43
-46 27 -62 -27 -31 -67 -127 -67 -164 0 -60 45 -81 70 -33 11 20 12 27 1 33
-16 10 -6 53 26 109 l24 42 45 -36 c44 -37 44 -37 27 -63 -67 -102 -79 -160
-38 -187 18 -12 24 -11 44 2 21 15 21 17 6 34 -15 17 -15 21 9 67 42 80 38 78
89 42 l46 -32 -24 -41 c-29 -51 -48 -120 -40 -147 8 -23 38 -41 58 -33 8 3 19
16 25 29 9 20 8 26 -5 33 -14 8 -14 14 1 60 10 29 21 54 26 57 5 3 34 -11 65
-30 l56 -36 -21 -32 c-37 -56 -73 -138 -77 -181 -6 -50 13 -72 52 -62 30 8 44
34 25 46 -11 7 -12 18 -2 61 11 46 55 139 67 139 2 0 33 -19 70 -41 l65 -41
-21 -32 c-34 -51 -89 -175 -89 -201 0 -15 10 -31 26 -41 24 -16 26 -16 44 2
26 28 35 64 16 64 -9 0 -16 6 -16 13 0 11 66 156 75 166 4 3 62 -29 103 -57 9
-6 0 -29 -38 -92 -79 -131 -90 -202 -34 -216 35 -9 53 10 35 37 -11 19 -8 32
24 108 20 47 44 96 53 108 l17 22 83 -51 c73 -45 81 -53 69 -67 -33 -38 -118
-202 -130 -251 -17 -65 -12 -88 20 -103 19 -8 29 -7 51 10 35 26 40 53 13 60
-12 3 -21 9 -21 12 0 18 100 242 115 259 4 4 145 -78 145 -84 0 -3 -25 -52
-55 -109 -40 -77 -55 -116 -55 -145 0 -75 53 -63 62 13 3 23 24 81 46 130 l41
87 75 -46 75 -46 -32 -45 c-74 -104 -87 -127 -87 -164 0 -34 20 -69 39 -69 4
0 16 9 27 21 18 20 18 21 1 31 -24 13 -16 37 41 123 26 39 47 71 48 73 1 2 33
-17 72 -43 l70 -46 -49 -107 c-27 -59 -49 -115 -49 -124 0 -31 12 -48 35 -48
30 0 49 24 41 53 -5 22 43 170 61 188 4 4 36 -13 71 -38 l63 -45 -23 -36 c-61
-101 -88 -165 -88 -214 0 -36 4 -50 16 -55 29 -11 49 11 50 54 0 39 74 213 90
213 4 0 35 -21 68 -47 34 -26 62 -47 64 -48 1 -1 -20 -49 -48 -106 -75 -156
-81 -219 -24 -240 36 -13 48 3 34 43 -15 41 3 115 51 210 l30 59 62 -47 c34
-26 64 -49 66 -51 2 -1 -19 -49 -47 -106 -95 -194 -110 -307 -40 -307 29 0 29
0 23 44 -8 48 21 150 76 274 l29 63 42 -31 c24 -17 54 -39 66 -49 l24 -18 -71
-118 c-71 -120 -85 -157 -79 -211 2 -21 9 -30 26 -32 19 -3 22 1 22 27 0 42
29 115 85 213 26 46 49 85 51 87 2 2 34 -20 73 -48 l69 -51 -54 -104 c-85
-162 -110 -250 -80 -275 25 -21 43 -2 49 50 6 48 112 289 127 289 6 0 113 -80
133 -99 4 -4 -22 -54 -58 -111 -66 -105 -90 -164 -79 -194 12 -31 35 -15 61
42 28 62 112 210 123 217 7 4 153 -112 158 -126 2 -4 -14 -34 -36 -66 -80
-119 -113 -203 -79 -203 21 0 50 37 106 133 29 48 56 87 61 87 11 0 65 -77 74
-107 5 -15 -1 -35 -20 -65 -16 -24 -54 -95 -85 -158 -31 -63 -71 -128 -88
-144 -17 -17 -31 -27 -31 -23 0 11 48 105 76 149 31 49 31 78 2 78 -26 0 -59
-48 -148 -210 -79 -144 -99 -170 -180 -232 -41 -31 -76 -56 -77 -54 -2 1 19
45 46 97 55 105 87 198 78 224 -14 34 -40 9 -76 -75 -20 -47 -63 -130 -94
-185 -31 -55 -57 -109 -57 -120 0 -13 -20 -34 -62 -62 -34 -24 -63 -41 -65
-39 -7 7 28 100 86 228 64 140 71 173 36 173 -16 0 -35 -29 -87 -135 -75 -153
-108 -239 -108 -286 0 -30 -6 -37 -83 -83 -120 -72 -123 -73 -99 -25 45 91
124 316 114 326 -26 26 -46 1 -99 -127 -30 -71 -65 -155 -78 -185 -14 -30 -26
-66 -27 -79 -2 -18 -19 -34 -61 -59 -32 -18 -60 -32 -63 -29 -6 5 81 266 112
336 28 62 30 87 9 95 -29 11 -38 -5 -132 -244 -39 -99 -57 -160 -57 -191 l-1
-45 -80 -47 c-43 -26 -82 -46 -86 -45 -11 5 25 133 81 282 28 76 49 145 46
153 -16 40 -41 1 -107 -162 -77 -190 -88 -224 -91 -284 -1 -40 -3 -43 -80 -92
-44 -28 -82 -48 -85 -45 -7 7 50 196 95 313 19 51 32 100 28 108 -11 29 -40
11 -64 -39 -32 -67 -120 -328 -135 -398 -12 -54 -15 -58 -87 -111 -41 -30 -76
-50 -78 -44 -3 14 8 49 77 247 58 166 62 190 27 190 -21 0 -28 -12 -64 -112
-22 -62 -56 -152 -76 -199 -20 -48 -39 -113 -42 -146 -6 -58 -8 -61 -66 -107
-33 -26 -62 -45 -65 -42 -10 9 15 107 68 270 27 83 49 156 49 162 0 6 -7 17
-16 24 -25 21 -37 -2 -93 -165 -64 -187 -83 -257 -85 -316 -1 -46 -1 -47 -106
-132 -58 -47 -106 -85 -107 -83 -3 3 104 397 122 446 18 52 13 73 -17 68 -18
-2 -28 -20 -55 -98 -61 -182 -143 -451 -143 -474 0 -17 -16 -36 -56 -66 -30
-23 -57 -40 -59 -38 -5 5 59 288 91 401 27 99 25 125 -8 112 -9 -4 -18 -14
-21 -23 -3 -9 -17 -55 -32 -102 -14 -47 -48 -170 -75 -274 -33 -126 -55 -193
-67 -202 -39 -30 -134 -86 -139 -81 -9 9 35 231 66 332 24 82 26 97 14 102 -9
3 -19 2 -24 -3 -19 -21 -120 -389 -120 -440 0 -27 -17 -34 -81 -34 -46 0 -49
2 -49 25 0 35 77 393 95 446 12 34 13 44 3 50 -29 18 -45 -25 -109 -291 -40
-167 -43 -174 -55 -144 -40 96 -42 418 -4 530 11 30 24 83 30 117 6 34 13 70
16 80 3 10 0 17 -9 17 -7 0 -19 -17 -25 -37 -9 -33 -10 -26 -5 47 7 111 5 634
-2 683 -5 32 -4 37 14 37 31 0 78 66 111 157 34 94 53 134 157 326 72 132 84
173 47 165 -19 -4 -194 -313 -235 -416 -16 -40 -44 -102 -62 -139 l-34 -66 -6
114 c-14 229 -19 203 96 436 57 114 134 259 171 321 64 108 74 142 42 142 -17
0 -156 -222 -250 -400 l-71 -135 -3 88 c-3 81 0 97 33 184 72 193 184 421 272
556 43 65 50 97 19 97 -33 0 -152 -188 -260 -410 l-71 -145 -3 99 -3 99 60
126 c33 69 74 162 91 205 37 93 103 227 131 268 22 30 19 58 -5 58 -24 0 -71
-77 -173 -287 -105 -215 -110 -219 -112 -88 -1 112 16 167 154 498 20 48 39
103 42 122 5 30 3 35 -14 35 -13 0 -23 -12 -32 -37 -21 -61 -145 -322 -153
-323 -5 0 -8 49 -8 108 0 104 2 113 40 207 22 54 69 154 105 222 68 129 80
173 46 173 -12 0 -23 -11 -29 -30 -6 -16 -29 -56 -52 -90 -44 -64 -110 -196
-110 -218 0 -7 -4 -11 -9 -8 -4 3 -11 50 -15 106 -7 98 -6 102 29 197 19 54
47 122 60 151 30 64 30 64 3 60 -18 -2 -33 -23 -64 -85 -22 -46 -44 -86 -48
-90 -20 -20 9 144 50 276 11 36 -26 23 -45 -16 -9 -18 -19 -33 -23 -33 -6 0
-11 94 -8 148 1 4 9 6 20 4 22 -3 54 38 41 51 -13 13 -1 42 76 176 89 157 81
150 119 106 l31 -38 -37 -61z m3090 -2299 c0 -8 -11 -24 -25 -37 -29 -27 -31
-21 -10 20 16 31 35 40 35 17z"/>
<path d="M4757 5358 c-105 -167 -253 -448 -281 -531 -19 -56 -20 -73 -5 -83
18 -11 36 16 83 129 25 60 91 189 146 287 56 99 100 187 98 196 -5 27 -25 28
-41 2z"/>
<path d="M4633 4833 c-119 -242 -172 -369 -180 -435 -5 -40 -3 -48 10 -48 23
0 41 33 67 120 12 41 71 180 131 309 60 129 109 240 109 247 0 8 -8 14 -18 14
-13 0 -44 -55 -119 -207z"/>
<path d="M4642 4453 c-101 -199 -146 -305 -168 -400 -11 -47 -12 -69 -4 -78 8
-9 2 -39 -20 -109 -31 -96 -39 -203 -15 -199 6 1 16 25 23 55 7 29 28 112 47
183 19 72 42 162 51 200 23 97 66 205 146 373 37 78 68 144 68 147 0 3 -8 5
-19 5 -14 0 -40 -44 -109 -177z"/>
<path d="M0 400 l0 -400 5000 0 5000 0 0 400 0 400 -5000 0 -5000 0 0 -400z
m2192 123 c23 -20 23 -57 1 -74 -15 -11 -16 -11 -5 1 27 31 11 72 -33 83 -19
4 -19 5 -1 6 11 0 28 -6 38 -16z m-69 -8 c-3 -9 -8 -14 -10 -11 -3 3 -2 9 2
15 9 16 15 13 8 -4z m-1760 -114 c22 -61 43 -108 47 -104 4 4 24 56 45 116 21
59 42 107 47 107 11 0 9 -5 -42 -149 -23 -64 -44 -107 -53 -109 -15 -3 -17 0
-67 143 -15 44 -31 88 -36 99 -5 13 -3 17 6 14 8 -2 32 -55 53 -117z m517 89
c0 -23 4 -30 20 -30 11 0 20 -4 20 -10 0 -5 -10 -10 -21 -10 -20 0 -21 -4 -17
-71 3 -55 8 -74 23 -85 23 -17 14 -29 -13 -15 -11 6 -22 25 -26 42 -10 51 -7
209 4 209 6 0 10 -13 10 -30z m515 16 c25 -11 33 -19 29 -30 -7 -19 -5 -19
-40 -1 -36 18 -55 19 -78 2 -28 -21 -9 -45 49 -62 87 -25 108 -74 54 -127 -29
-29 -33 -30 -90 -25 -68 6 -72 8 -64 29 5 13 12 14 40 5 50 -15 100 1 100 33
0 16 -8 28 -25 36 -87 40 -105 51 -108 67 -14 70 53 106 133 73z m105 -16 c0
-25 4 -30 25 -30 16 0 25 -6 25 -15 0 -9 -9 -15 -25 -15 -24 0 -25 -3 -25 -60
0 -55 2 -62 25 -72 14 -6 25 -15 25 -20 0 -18 -31 -20 -55 -4 -24 16 -25 20
-25 131 0 96 3 115 15 115 10 0 15 -10 15 -30z m482 -32 l3 -62 36 32 c20 18
45 32 55 32 14 0 9 -9 -21 -40 l-39 -40 42 -60 c40 -57 41 -60 20 -60 -16 0
-32 14 -53 45 -16 25 -33 45 -37 45 -5 0 -8 -20 -8 -45 0 -38 -3 -45 -20 -45
-19 0 -20 7 -20 130 0 122 1 130 20 130 16 0 19 -8 22 -62z m193 30 c1 -20 -2
-24 -11 -17 -8 7 -14 6 -17 -3 -3 -7 -6 2 -6 20 -1 27 3 33 17 30 11 -2 17
-13 17 -30z m-44 -35 c13 -16 12 -17 -3 -4 -17 13 -22 21 -14 21 2 0 10 -8 17
-17z m-1502 -19 c12 -15 21 -40 21 -55 0 -29 0 -29 -65 -29 -72 0 -83 -12 -44
-51 17 -17 30 -20 65 -16 43 4 59 -5 28 -17 -45 -17 -106 3 -123 41 -45 98 56
206 118 127z m191 16 c17 -11 10 -13 -40 -10 -47 2 -75 -28 -75 -80 0 -55 26
-80 82 -80 27 0 42 -4 38 -10 -9 -15 -78 -12 -102 5 -50 35 -50 135 0 170 24
17 74 20 97 5z m265 -13 c20 -16 28 -35 32 -69 5 -42 3 -50 -25 -78 -41 -41
-83 -41 -124 0 -28 28 -30 36 -25 78 9 82 84 119 142 69z m85 7 c0 -14 2 -14
22 0 24 17 38 20 38 9 0 -5 -14 -16 -30 -25 -29 -17 -30 -19 -30 -93 0 -43 -4
-75 -10 -75 -6 0 -10 40 -10 100 0 60 4 100 10 100 6 0 10 -7 10 -16z m537 1
c30 -21 44 -75 32 -120 -25 -88 -143 -88 -168 0 -20 72 20 135 84 135 17 0 40
-7 52 -15z m198 -5 c0 -10 -8 -14 -27 -12 -58 6 -91 -42 -67 -100 11 -28 36
-40 74 -35 12 1 20 -4 20 -13 0 -19 -48 -25 -85 -10 -63 26 -68 148 -6 179 31
15 91 9 91 -9z m5484 -83 c8 -26 17 -47 21 -47 4 0 13 21 21 47 8 25 20 48 26
50 13 5 -22 -113 -38 -131 -12 -14 -18 -5 -45 69 -16 44 -20 65 -12 63 7 -3
19 -26 27 -51z m638 38 c2 -6 -9 -11 -23 -10 -39 0 -42 -23 -5 -36 34 -12 49
-43 31 -64 -13 -16 -38 -19 -64 -9 -27 10 -18 22 17 20 38 -1 43 19 8 37 -36
18 -48 42 -31 62 14 17 61 17 67 0z m333 -20 c0 -35 16 -47 26 -20 4 8 13 15
22 15 13 0 13 -3 -2 -19 -16 -18 -16 -21 -1 -50 9 -18 11 -31 5 -31 -6 0 -16
11 -22 25 -6 14 -15 25 -20 25 -4 0 -8 -11 -8 -25 0 -14 -4 -25 -10 -25 -6 0
-10 30 -10 70 0 40 4 70 10 70 6 0 10 -16 10 -35z m580 32 c0 -4 -34 -104 -45
-136 -3 -8 -8 -11 -11 -8 -8 7 38 147 48 147 4 0 8 -2 8 -3z m100 -7 c0 -5
-11 -10 -25 -10 -32 0 -32 -16 -1 -24 27 -7 41 -35 31 -65 -7 -23 -37 -35 -65
-26 -31 10 -24 23 13 21 28 -1 32 2 32 24 0 22 -4 25 -33 23 -26 -1 -32 2 -28
14 3 8 6 23 6 34 0 15 7 19 35 19 19 0 35 -4 35 -10z m110 0 c0 -5 -11 -10
-25 -10 -32 0 -32 -16 -1 -24 27 -7 41 -35 31 -65 -7 -23 -37 -35 -65 -26 -31
10 -24 23 13 21 28 -1 32 2 32 24 0 21 -4 25 -30 24 -29 -1 -30 0 -27 32 4 31
7 34 38 34 19 0 34 -4 34 -10z m114 -12 c44 -63 -17 -154 -68 -102 -9 9 -16
32 -16 54 0 64 52 94 84 48z m118 -30 c2 -29 2 -61 0 -70 -5 -22 -22 -24 -22
-3 0 10 -10 15 -30 15 -16 0 -30 3 -30 6 0 16 56 104 67 104 6 0 13 -22 15
-52z m128 42 c0 -5 -11 -10 -25 -10 -14 0 -29 -8 -36 -21 -9 -18 -8 -20 9 -15
12 4 28 -1 43 -13 21 -16 22 -22 11 -45 -21 -47 -92 -23 -92 31 0 27 17 64 34
75 16 11 56 10 56 -2z m100 -9 c-5 -11 -15 -23 -20 -26 -6 -4 -1 -14 12 -25
20 -15 21 -21 10 -44 -11 -26 -34 -32 -66 -20 -28 11 -17 24 14 18 22 -5 31
-2 36 11 6 16 -3 28 -31 39 -6 2 -5 9 3 17 18 19 15 29 -8 29 -11 0 -20 5 -20
10 0 6 18 10 40 10 37 0 40 -2 30 -19z m80 -41 c0 -33 4 -60 10 -60 6 0 10 -4
10 -10 0 -5 -13 -10 -30 -10 -16 0 -30 5 -30 10 0 6 5 10 10 10 6 0 10 20 10
45 0 38 -2 43 -17 38 -16 -6 -16 -4 1 15 29 34 36 27 36 -38z m-1960 15 c9
-10 9 -15 1 -15 -15 0 -14 -57 2 -63 6 -2 9 -8 4 -13 -19 -20 -43 38 -38 94 1
16 16 15 31 -3z m360 0 c9 -10 9 -15 1 -15 -15 0 -14 -57 2 -63 6 -2 9 -7 6
-11 -15 -17 -37 8 -41 47 -7 58 5 74 32 42z m-532 -7 c23 -23 13 -38 -24 -38
-46 0 -41 -23 7 -30 27 -4 30 -7 16 -13 -28 -11 -44 -9 -61 9 -32 31 -14 84
29 84 12 0 26 -5 33 -12z m117 3 c3 -5 -9 -11 -27 -13 -28 -2 -33 -7 -33 -28
0 -21 5 -26 33 -28 36 -4 34 -22 -3 -22 -28 0 -55 24 -55 50 0 37 67 69 85 41z
m169 -7 c21 -20 20 -43 -1 -66 -20 -22 -46 -23 -67 -2 -31 30 -9 84 34 84 10
0 26 -7 34 -16z m86 6 c0 -4 -7 -10 -15 -14 -9 -3 -15 -19 -15 -41 0 -19 -4
-35 -10 -35 -5 0 -10 22 -10 49 0 45 2 49 25 49 14 0 25 -4 25 -8z m274 -6
c21 -20 20 -43 -1 -66 -20 -22 -46 -23 -67 -2 -31 30 -9 84 34 84 10 0 26 -7
34 -16z m113 9 c14 -6 10 -9 -17 -13 -29 -4 -35 -9 -35 -30 0 -21 5 -26 33
-28 36 -4 34 -22 -3 -22 -28 0 -55 24 -55 50 0 22 25 50 45 50 7 0 22 -3 32
-7z m250 0 c14 -6 10 -9 -17 -13 -29 -4 -35 -9 -35 -30 0 -21 5 -26 33 -28 36
-4 34 -22 -3 -22 -28 0 -55 24 -55 50 0 22 25 50 45 50 7 0 22 -3 32 -7z m107
-9 c31 -30 9 -84 -34 -84 -24 0 -50 26 -50 50 0 24 26 50 50 50 10 0 26 -7 34
-16z m113 4 c7 -5 14 -5 18 2 10 16 42 12 49 -6 10 -25 7 -84 -4 -84 -5 0 -10
18 -10 41 0 33 -3 40 -17 37 -13 -2 -19 -14 -21 -41 -4 -50 -22 -47 -22 4 0
36 -2 40 -22 37 -19 -2 -24 -10 -26 -40 -5 -55 -22 -46 -22 10 0 48 0 49 33
49 17 0 37 -4 44 -9z m-327 -78 c0 -5 -4 -10 -10 -10 -5 0 -10 5 -10 10 0 6 5
10 10 10 6 0 10 -4 10 -10z"/>
<path d="M2150 500 c0 -5 5 -10 10 -10 6 0 10 5 10 10 0 6 -4 10 -10 10 -5 0
-10 -4 -10 -10z"/>
<path d="M536 418 c-28 -39 -21 -48 39 -48 59 0 67 9 45 51 -15 27 -64 25 -84
-3z"/>
<path d="M986 424 c-50 -50 -21 -144 44 -144 48 0 80 50 66 104 -13 53 -75 75
-110 40z"/>
<path d="M1616 408 c-32 -46 -8 -118 39 -118 28 0 55 34 55 70 0 36 -27 70
-55 70 -13 0 -31 -10 -39 -22z"/>
<path d="M9204 365 c-9 -38 3 -75 26 -75 13 0 22 9 26 25 9 38 -3 75 -26 75
-13 0 -22 -9 -26 -25z"/>
<path d="M9337 350 c-18 -29 -18 -30 2 -30 17 0 21 6 21 30 0 17 -1 30 -3 30
-1 0 -11 -13 -20 -30z"/>
<path d="M9444 325 c-4 -9 -2 -21 4 -27 16 -16 47 -5 47 17 0 26 -42 34 -51
10z"/>
<path d="M7505 340 c-4 -6 5 -10 19 -10 14 0 26 5 26 10 0 6 -9 10 -19 10 -11
0 -23 -4 -26 -10z"/>
<path d="M7784 336 c-10 -26 4 -48 28 -44 17 2 23 10 23 28 0 18 -6 26 -23 28
-13 2 -25 -3 -28 -12z"/>
<path d="M8144 336 c-10 -26 4 -48 28 -44 17 2 23 10 23 28 0 18 -6 26 -23 28
-13 2 -25 -3 -28 -12z"/>
<path d="M8614 336 c-10 -26 4 -48 28 -44 17 2 23 10 23 28 0 18 -6 26 -23 28
-13 2 -25 -3 -28 -12z"/>
</g>
</svg>
